# Blender 4.1.1
# www.blender.org
mtllib enemy.mtl
o 球
v -0.073610 1.911041 -0.253984
v -0.073610 1.784912 -0.380113
v -0.073610 1.620115 -0.448374
v -0.073610 1.530928 -0.457159
v -0.073610 1.441741 -0.448374
v -0.073610 1.276944 -0.380113
v -0.056211 1.979302 -0.087474
v -0.039480 1.953287 -0.171585
v -0.024061 1.911041 -0.249103
v -0.010546 1.854188 -0.317049
v 0.000546 1.784912 -0.372810
v 0.008788 1.705875 -0.414244
v 0.013863 1.620115 -0.439759
v 0.015577 1.530928 -0.448374
v 0.065913 1.388999 -0.701432
v 0.008788 1.355981 -0.414244
v 0.000546 1.276944 -0.372810
v -0.010546 1.207668 -0.317049
v -0.024061 1.150815 -0.249103
v -0.039480 1.108569 -0.171585
v -0.056211 1.082554 -0.087474
v -0.039480 1.979302 -0.082398
v -0.006661 1.953287 -0.161630
v 0.023585 1.911041 -0.234650
v 0.050096 1.854188 -0.298653
v 0.071853 1.784912 -0.351179
v 0.088019 1.705875 -0.390209
v 0.097975 1.620115 -0.414244
v 0.101337 1.530928 -0.422359
v 0.097975 1.441741 -0.414244
v 0.088019 1.355981 -0.390209
v 0.071853 1.276944 -0.351179
v 0.050096 1.207668 -0.298653
v 0.023585 1.150815 -0.234650
v -0.006661 1.108569 -0.161630
v -0.039480 1.082554 -0.082398
v -0.024061 1.979302 -0.074156
v 0.023585 1.953287 -0.145463
v 0.067495 1.911041 -0.211180
v 0.179844 1.985996 -0.379322
v 0.137569 1.784912 -0.316053
v 0.161040 1.705875 -0.351179
v 0.175493 1.620115 -0.372810
v 0.180373 1.530928 -0.380113
v 0.175493 1.441741 -0.372810
v 0.161040 1.355981 -0.351179
v 0.137569 1.276944 -0.316053
v 0.105983 1.207668 -0.268781
v 0.067495 1.150815 -0.211180
v 0.023585 1.108569 -0.145463
v -0.024061 1.082554 -0.074156
v -0.010546 1.979302 -0.063065
v 0.050096 1.953287 -0.123706
v 0.105983 1.911041 -0.179594
v 0.154969 1.854188 -0.228579
v 0.195170 1.784912 -0.268781
v 0.225043 1.705875 -0.298653
v 0.243438 1.620115 -0.317049
v 0.249649 1.530928 -0.323260
v 0.243438 1.441741 -0.317049
v 0.356002 1.280286 -0.429613
v 0.195170 1.276944 -0.268781
v 0.154969 1.207668 -0.228579
v 0.105983 1.150815 -0.179594
v 0.050096 1.108569 -0.123706
v -0.010546 1.082554 -0.063065
v 0.000546 1.979302 -0.049550
v 0.071853 1.953287 -0.097195
v 0.137569 1.911041 -0.141106
v 0.195170 1.854188 -0.179594
v 0.242442 1.784912 -0.211180
v 0.429869 1.781249 -0.336414
v 0.299199 1.620115 -0.249103
v 0.306503 1.530928 -0.253984
v 0.299199 1.441741 -0.249103
v 0.277568 1.355981 -0.234650
v 0.242442 1.276944 -0.211180
v 0.195170 1.207668 -0.179594
v 0.137569 1.150815 -0.141106
v 0.071853 1.108569 -0.097195
v 0.000546 1.082554 -0.049550
v -0.073610 1.988087 0.000000
v 0.008788 1.979302 -0.034130
v 0.088019 1.953287 -0.066949
v 0.161040 1.911041 -0.097195
v 0.225043 1.854188 -0.123706
v 0.277568 1.784912 -0.145463
v 0.316599 1.705875 -0.161630
v 0.340633 1.620115 -0.171585
v 0.348749 1.530928 -0.174947
v 0.340633 1.441741 -0.171585
v 0.316599 1.355981 -0.161630
v 0.277568 1.276944 -0.145463
v 0.225043 1.207668 -0.123706
v 0.161040 1.150815 -0.097195
v 0.088019 1.108569 -0.066949
v 0.008788 1.082554 -0.034130
v 0.013863 1.979302 -0.017400
v 0.097975 1.953287 -0.034130
v 0.175493 1.911041 -0.049550
v 0.391354 2.001556 -0.063065
v 0.299199 1.784912 -0.074156
v 0.340633 1.705875 -0.082398
v 0.366148 1.620115 -0.087473
v 0.374764 1.530928 -0.089187
v 0.366148 1.441741 -0.087473
v 0.340633 1.355981 -0.082398
v 0.299199 1.276944 -0.074156
v 0.243438 1.207668 -0.063065
v 0.175493 1.150815 -0.049550
v 0.097975 1.108569 -0.034130
v 0.013863 1.082554 -0.017400
v 0.015577 1.979302 0.000000
v 0.101337 1.953287 0.000000
v 0.180373 1.911041 0.000000
v 0.249649 1.854188 -0.000000
v 0.306503 1.784912 0.000000
v 0.348749 1.705875 -0.000000
v 0.374764 1.620115 0.000000
v 0.383548 1.530928 0.000000
v 0.617920 1.393673 0.000000
v 0.348749 1.355981 -0.000000
v 0.306503 1.276944 0.000000
v 0.249649 1.207668 -0.000000
v 0.180373 1.150815 0.000000
v 0.101337 1.108569 0.000000
v 0.015577 1.082554 0.000000
v 0.013863 1.979302 0.017400
v 0.097975 1.953287 0.034130
v 0.175493 1.911041 0.049550
v 0.243438 1.854188 0.063065
v 0.299199 1.784912 0.074156
v 0.340633 1.705875 0.082398
v 0.366148 1.620115 0.087474
v 0.374764 1.530928 0.089187
v 0.366148 1.441741 0.087474
v 0.340633 1.355981 0.082398
v 0.299199 1.276944 0.074156
v 0.243438 1.207668 0.063065
v 0.175493 1.150815 0.049550
v 0.097975 1.108569 0.034130
v 0.013863 1.082554 0.017400
v 0.008788 1.979302 0.034130
v 0.088019 1.953287 0.066949
v 0.161040 1.911041 0.097195
v 0.225043 1.854188 0.123706
v 0.277568 1.784912 0.145463
v 0.316599 1.705875 0.161630
v 0.340633 1.620115 0.171585
v 0.576765 1.530928 0.269395
v 0.340633 1.441741 0.171585
v 0.316599 1.355981 0.161630
v 0.277568 1.276944 0.145463
v 0.225043 1.207668 0.123706
v 0.161040 1.150815 0.097195
v 0.088019 1.108569 0.066949
v 0.008788 1.082554 0.034130
v 0.000546 1.979302 0.049550
v 0.141034 2.151001 0.143421
v 0.137569 1.911041 0.141106
v 0.195170 1.854188 0.179594
v 0.242442 1.784912 0.211180
v 0.277568 1.705875 0.234650
v 0.299199 1.620115 0.249103
v 0.306503 1.530928 0.253984
v 0.299199 1.441741 0.249103
v 0.277568 1.355981 0.234650
v 0.242442 1.276944 0.211180
v 0.195170 1.207668 0.179594
v 0.137569 1.150815 0.141106
v 0.071853 1.108569 0.097195
v 0.000546 1.082554 0.049550
v -0.010546 1.979302 0.063065
v 0.050096 1.953287 0.123706
v 0.105983 1.911041 0.179594
v 0.154969 1.854188 0.228579
v 0.325116 1.905429 0.398726
v 0.225043 1.705875 0.298653
v 0.243438 1.620115 0.317049
v 0.249649 1.530928 0.323260
v 0.243438 1.441741 0.317049
v 0.346299 1.285416 0.419910
v 0.195170 1.276944 0.268781
v 0.154969 1.207668 0.228579
v 0.105983 1.150815 0.179594
v 0.050096 1.108569 0.123706
v -0.010546 1.082554 0.063065
v -0.024061 1.979302 0.074156
v 0.023585 1.953287 0.145463
v 0.067495 1.911041 0.211180
v 0.105983 1.854188 0.268781
v 0.137569 1.784912 0.316053
v 0.161040 1.705875 0.351179
v 0.175493 1.620115 0.372810
v 0.180373 1.530928 0.380113
v 0.175493 1.441741 0.372810
v 0.161040 1.355981 0.351179
v 0.137569 1.276944 0.316053
v 0.105983 1.207668 0.268781
v 0.067495 1.150815 0.211180
v 0.023585 1.108569 0.145463
v -0.024061 1.082554 0.074156
v -0.039480 1.979302 0.082398
v -0.006661 1.953287 0.161630
v 0.023585 1.911041 0.234650
v 0.050096 1.854188 0.298653
v 0.071853 1.784912 0.351179
v 0.088019 1.705875 0.390209
v 0.178963 1.661951 0.609766
v 0.101336 1.530928 0.422359
v 0.097975 1.441741 0.414244
v 0.088019 1.355981 0.390209
v 0.071853 1.276944 0.351179
v 0.050096 1.207668 0.298653
v 0.023585 1.150815 0.234650
v -0.006661 1.108569 0.161630
v -0.039480 1.082554 0.082398
v -0.056211 1.979302 0.087473
v -0.039480 1.953287 0.171585
v -0.024061 1.911041 0.249103
v -0.010546 1.854188 0.317049
v 0.000546 1.784912 0.372810
v 0.008788 1.705875 0.414244
v 0.013863 1.620115 0.439759
v 0.015577 1.530928 0.448374
v 0.013863 1.441741 0.439759
v 0.008788 1.355981 0.414244
v 0.000546 1.276944 0.372810
v -0.010546 1.207668 0.317049
v -0.024061 1.150815 0.249103
v -0.039480 1.108569 0.171585
v -0.056211 1.082554 0.087473
v -0.073610 1.979302 0.089187
v -0.073611 1.953287 0.174947
v -0.073611 1.911041 0.253984
v -0.073611 2.014828 0.485287
v -0.073611 1.784912 0.380113
v -0.073610 1.705875 0.422359
v -0.073611 1.620115 0.448374
v -0.073611 1.530928 0.457158
v -0.073611 1.441741 0.448374
v -0.073610 1.281961 0.602238
v -0.073611 1.276944 0.380113
v -0.073610 1.207668 0.323260
v -0.073611 1.150815 0.253984
v -0.073611 1.108569 0.174947
v -0.073610 1.082554 0.089187
v -0.091010 1.979302 0.087473
v -0.107741 1.953287 0.171585
v -0.123160 1.911041 0.249103
v -0.136675 1.854188 0.317048
v -0.147767 1.784912 0.372810
v -0.156009 1.705875 0.414244
v -0.161084 1.620115 0.439759
v -0.162798 1.530928 0.448374
v -0.161084 1.441741 0.439759
v -0.156009 1.355981 0.414244
v -0.147767 1.276944 0.372810
v -0.136675 1.207668 0.317048
v -0.123160 1.150815 0.249103
v -0.107741 1.108569 0.171585
v -0.091010 1.082554 0.087473
v -0.107741 1.979302 0.082398
v -0.140560 1.953287 0.161630
v -0.170806 1.911041 0.234650
v -0.197317 1.854188 0.298653
v -0.219074 1.784912 0.351179
v -0.235240 1.705875 0.390209
v -0.245196 1.620115 0.414244
v -0.339340 1.530928 0.641527
v -0.245196 1.441741 0.414244
v -0.235240 1.355981 0.390209
v -0.219074 1.276944 0.351179
v -0.197317 1.207668 0.298653
v -0.170806 1.150815 0.234650
v -0.140560 1.108569 0.161630
v -0.107741 1.082554 0.082398
v -0.123160 1.979302 0.074156
v -0.170806 1.953287 0.145463
v -0.214716 1.911041 0.211180
v -0.253204 1.854188 0.268781
v -0.284790 1.784912 0.316053
v -0.308261 1.705875 0.351179
v -0.322714 1.620115 0.372809
v -0.327594 1.530928 0.380113
v -0.322714 1.441741 0.372809
v -0.308261 1.355981 0.351179
v -0.284790 1.276944 0.316053
v -0.253204 1.207668 0.268781
v -0.214716 1.150815 0.211180
v -0.170806 1.108569 0.145463
v -0.123160 1.082554 0.074156
v -0.136675 1.979302 0.063065
v -0.197317 1.953287 0.123706
v -0.335381 2.083078 0.261770
v -0.302190 1.854188 0.228579
v -0.342391 1.784912 0.268781
v -0.372264 1.705875 0.298653
v -0.390659 1.620115 0.317048
v -0.396870 1.530928 0.323260
v -0.390659 1.441741 0.317048
v -0.372264 1.355981 0.298653
v -0.342391 1.276944 0.268781
v -0.302190 1.207668 0.228579
v -0.253204 1.150815 0.179593
v -0.197317 1.108569 0.123706
v -0.136675 1.082554 0.063065
v -0.073610 1.073769 0.000000
v -0.147767 1.979302 0.049550
v -0.219074 1.953287 0.097195
v -0.284790 1.911041 0.141106
v -0.342391 1.854188 0.179594
v -0.389663 1.784912 0.211180
v -0.424789 1.705875 0.234650
v -0.446420 1.620115 0.249103
v -0.453724 1.530928 0.253983
v -0.446420 1.441741 0.249103
v -0.424789 1.355981 0.234650
v -0.527512 1.166974 0.303287
v -0.342391 1.207668 0.179594
v -0.284790 1.150815 0.141106
v -0.219074 1.108569 0.097195
v -0.147767 1.082554 0.049550
v -0.156009 1.979302 0.034130
v -0.235240 1.953287 0.066949
v -0.308261 1.911041 0.097195
v -0.372264 1.854188 0.123706
v -0.424789 1.784912 0.145463
v -0.655704 1.791341 0.241111
v -0.487854 1.620115 0.171585
v -0.495970 1.530928 0.174947
v -0.487854 1.441741 0.171585
v -0.463820 1.355981 0.161630
v -0.424789 1.276944 0.145463
v -0.372264 1.207668 0.123706
v -0.308261 1.150815 0.097195
v -0.235240 1.108569 0.066949
v -0.156009 1.082554 0.034130
v -0.161084 1.979302 0.017400
v -0.245196 1.953287 0.034130
v -0.322714 1.911041 0.049550
v -0.390659 1.854188 0.063065
v -0.446420 1.784912 0.074156
v -0.487854 1.705875 0.082398
v -0.513369 1.620115 0.087473
v -0.521985 1.530928 0.089187
v -0.513369 1.441741 0.087473
v -0.487854 1.355981 0.082398
v -0.446420 1.276944 0.074156
v -0.390659 1.207668 0.063065
v -0.322714 1.150815 0.049550
v -0.245196 1.108569 0.034130
v -0.161084 1.082554 0.017400
v -0.162798 1.979302 -0.000000
v -0.248557 1.953287 -0.000000
v -0.327594 1.911041 -0.000000
v -0.396870 1.854188 -0.000000
v -0.453724 1.784912 -0.000000
v -0.495970 1.705875 -0.000000
v -0.521985 1.620115 -0.000000
v -0.530769 1.530928 -0.000000
v -0.722145 1.402173 -0.000000
v -0.495970 1.355981 -0.000000
v -0.453724 1.276944 -0.000000
v -0.396870 1.207668 -0.000000
v -0.327594 1.150815 -0.000000
v -0.248557 1.108569 -0.000000
v -0.162798 1.082554 -0.000000
v -0.161084 1.979302 -0.017400
v -0.245196 1.953287 -0.034130
v -0.322714 1.911041 -0.049550
v -0.390659 1.854188 -0.063065
v -0.446420 1.784912 -0.074156
v -0.487854 1.705875 -0.082398
v -0.513369 1.620115 -0.087474
v -0.521984 1.530928 -0.089187
v -0.513369 1.441741 -0.087474
v -0.487854 1.355981 -0.082398
v -0.446420 1.276944 -0.074156
v -0.390659 1.207668 -0.063065
v -0.322714 1.150815 -0.049550
v -0.245196 1.108569 -0.034130
v -0.161084 1.082554 -0.017400
v -0.156009 1.979302 -0.034130
v -0.235240 1.953287 -0.066949
v -0.429686 2.105601 -0.147492
v -0.372264 1.854188 -0.123706
v -0.424789 1.784912 -0.145463
v -0.463820 1.705875 -0.161630
v -0.487854 1.620115 -0.171585
v -0.495969 1.530928 -0.174947
v -0.487854 1.441741 -0.171585
v -0.463820 1.355981 -0.161630
v -0.424789 1.276944 -0.145463
v -0.372264 1.207668 -0.123706
v -0.308261 1.150815 -0.097195
v -0.235240 1.108569 -0.066949
v -0.156009 1.082554 -0.034130
v -0.147767 1.979302 -0.049550
v -0.219074 1.953287 -0.097195
v -0.284790 1.911041 -0.141106
v -0.342391 1.854188 -0.179594
v -0.389663 1.784912 -0.211180
v -0.424789 1.705875 -0.234650
v -0.446420 1.620115 -0.249103
v -0.671089 1.530928 -0.399223
v -0.446420 1.441741 -0.249103
v -0.424789 1.355981 -0.234650
v -0.389663 1.276944 -0.211180
v -0.342391 1.207668 -0.179594
v -0.284790 1.150815 -0.141106
v -0.219074 1.108569 -0.097195
v -0.147767 1.082554 -0.049550
v -0.136675 1.979302 -0.063065
v -0.197317 1.953287 -0.123706
v -0.253204 1.911041 -0.179593
v -0.302190 1.854188 -0.228579
v -0.342391 1.784912 -0.268781
v -0.372264 1.705875 -0.298653
v -0.390659 1.620115 -0.317048
v -0.396870 1.530928 -0.323260
v -0.390659 1.441741 -0.317048
v -0.372264 1.355981 -0.298653
v -0.342391 1.276944 -0.268781
v -0.302190 1.207668 -0.228579
v -0.253204 1.150815 -0.179593
v -0.197317 1.108569 -0.123706
v -0.136675 1.082554 -0.063065
v -0.123160 1.979302 -0.074156
v -0.170806 1.953287 -0.145463
v -0.214716 1.911041 -0.211180
v -0.253204 1.854188 -0.268781
v -0.284790 1.784912 -0.316053
v -0.308261 1.705875 -0.351179
v -0.322714 1.620115 -0.372810
v -0.327594 1.530928 -0.380113
v -0.322714 1.441741 -0.372810
v -0.308261 1.355981 -0.351179
v -0.284790 1.276944 -0.316053
v -0.253204 1.207668 -0.268781
v -0.214716 1.150815 -0.211180
v -0.170806 1.108569 -0.145463
v -0.123160 1.082554 -0.074156
v -0.107741 1.979302 -0.082398
v -0.140560 1.953287 -0.161630
v -0.170806 1.911041 -0.234650
v -0.197317 1.854188 -0.298653
v -0.219073 1.784912 -0.351179
v -0.347314 1.826387 -0.660778
v -0.245196 1.620115 -0.414244
v -0.248557 1.530928 -0.422359
v -0.245196 1.441741 -0.414244
v -0.235240 1.355981 -0.390209
v -0.294674 1.145904 -0.533696
v -0.197317 1.207668 -0.298653
v -0.170806 1.150815 -0.234650
v -0.140560 1.108569 -0.161630
v -0.107741 1.082554 -0.082398
v -0.091010 1.979302 -0.087473
v -0.107741 1.953287 -0.171585
v -0.123160 1.911041 -0.249103
v -0.136675 1.854188 -0.317048
v -0.147767 1.784912 -0.372809
v -0.156009 1.705875 -0.414244
v -0.161084 1.620115 -0.439759
v -0.162797 1.530928 -0.448374
v -0.161084 1.441741 -0.439759
v -0.156009 1.355981 -0.414244
v -0.147767 1.276944 -0.372809
v -0.136675 1.207668 -0.317048
v -0.123160 1.150815 -0.249103
v -0.107741 1.108569 -0.171585
v -0.091010 1.082554 -0.087473
v -0.073610 1.979302 -0.089187
v -0.073610 1.953287 -0.174947
v -0.073610 1.854188 -0.323260
v -0.073610 1.705875 -0.422359
v -0.073610 1.355981 -0.422359
v -0.073610 1.207668 -0.323260
v -0.073610 1.150815 -0.253983
v -0.073610 1.108569 -0.174947
v -0.073610 1.082554 -0.089187
vn -0.0000 0.8286 -0.5598
vn -0.0000 0.5528 -0.8333
vn -0.0000 0.1939 -0.9810
vn -0.0000 -0.0000 -1.0000
vn -0.3244 -0.1747 -0.9296
vn -0.0000 -0.5528 -0.8333
vn 0.0392 0.9796 -0.1971
vn 0.0757 0.9217 -0.3804
vn 0.1092 0.8286 -0.5490
vn 0.1385 0.7041 -0.6965
vn 0.1626 0.5528 -0.8173
vn 0.1804 0.3805 -0.9070
vn 0.1914 0.1939 -0.9622
vn 0.1854 0.3117 -0.9319
vn 0.1915 -0.1922 -0.9625
vn 0.1475 -0.6546 -0.7415
vn 0.1626 -0.5528 -0.8173
vn 0.1385 -0.7041 -0.6965
vn 0.1092 -0.8286 -0.5490
vn 0.0757 -0.9217 -0.3804
vn 0.0392 -0.9796 -0.1971
vn 0.0769 0.9796 -0.1857
vn 0.1484 0.9217 -0.3584
vn 0.2142 0.8286 -0.5172
vn -0.0934 0.6190 -0.7799
vn 0.3189 0.5528 -0.7699
vn 0.3539 0.3805 -0.8544
vn 0.3754 0.1939 -0.9063
vn 0.3827 -0.0000 -0.9239
vn 0.6555 -0.1747 -0.7347
vn 0.3539 -0.3805 -0.8544
vn 0.3189 -0.5528 -0.7699
vn 0.2718 -0.7041 -0.6561
vn 0.2142 -0.8286 -0.5172
vn 0.1484 -0.9217 -0.3584
vn 0.0769 -0.9796 -0.1857
vn 0.1117 0.9796 -0.1671
vn 0.2155 0.9217 -0.3225
vn 0.1984 0.9341 -0.2969
vn 0.3970 0.6995 -0.5942
vn 0.5179 0.3620 -0.7751
vn 0.5138 0.3805 -0.7689
vn 0.5450 0.1939 -0.8157
vn 0.5556 -0.0000 -0.8315
vn 0.5450 -0.1939 -0.8157
vn 0.2313 -0.3459 -0.9093
vn 0.4630 -0.5528 -0.6929
vn 0.3945 -0.7041 -0.5905
vn 0.3110 -0.8286 -0.4654
vn 0.2155 -0.9217 -0.3225
vn 0.1117 -0.9796 -0.1671
vn 0.1421 0.9796 -0.1421
vn 0.2743 0.9217 -0.2743
vn 0.3958 0.8286 -0.3958
vn 0.7562 0.6190 -0.2121
vn 0.5893 0.5528 -0.5893
vn 0.4053 0.3458 -0.8462
vn 0.6937 0.1939 -0.6937
vn 0.7071 -0.0000 -0.7071
vn 0.7049 0.0781 -0.7049
vn 0.6556 -0.3747 -0.6556
vn 0.4567 -0.7634 -0.4567
vn 0.5021 -0.7041 -0.5021
vn 0.3958 -0.8286 -0.3958
vn 0.2743 -0.9217 -0.2743
vn 0.1421 -0.9796 -0.1421
vn 0.1671 0.9796 -0.1117
vn 0.3225 0.9217 -0.2155
vn 0.4654 0.8286 -0.3110
vn 0.5905 0.7041 -0.3945
vn 0.5374 0.7631 -0.3591
vn 0.7703 0.3766 -0.5147
vn 0.8290 -0.0765 -0.5539
vn 0.8315 -0.0000 -0.5556
vn 0.8157 -0.1939 -0.5450
vn 0.9093 -0.3459 -0.2313
vn 0.6929 -0.5528 -0.4630
vn 0.5905 -0.7041 -0.3945
vn 0.4654 -0.8286 -0.3110
vn 0.3225 -0.9217 -0.2155
vn 0.1671 -0.9796 -0.1117
vn -0.0000 1.0000 -0.0000
vn 0.1857 0.9796 -0.0769
vn 0.3584 0.9217 -0.1484
vn 0.5172 0.8286 -0.2142
vn 0.5054 0.6294 -0.5903
vn 0.7699 0.5528 -0.3189
vn 0.9369 0.3458 -0.0506
vn 0.9063 0.1939 -0.3754
vn 0.9239 -0.0000 -0.3827
vn 0.9063 -0.1939 -0.3754
vn 0.8544 -0.3805 -0.3539
vn 0.7699 -0.5528 -0.3189
vn 0.6561 -0.7041 -0.2718
vn 0.5172 -0.8286 -0.2142
vn 0.3584 -0.9217 -0.1484
vn 0.1857 -0.9796 -0.0769
vn 0.1971 0.9796 -0.0392
vn 0.3804 0.9217 -0.0757
vn 0.3391 0.9374 -0.0789
vn 0.7125 0.7016 -0.0121
vn 0.9137 0.3578 -0.1925
vn 0.9070 0.3805 -0.1804
vn 0.9622 0.1939 -0.1914
vn 0.9808 -0.0000 -0.1951
vn 0.8527 -0.1755 -0.4920
vn 0.9070 -0.3805 -0.1804
vn 0.8173 -0.5528 -0.1626
vn 0.6965 -0.7041 -0.1385
vn 0.5490 -0.8286 -0.1092
vn 0.3804 -0.9217 -0.0757
vn 0.1971 -0.9796 -0.0392
vn 0.2010 0.9796 -0.0000
vn 0.3879 0.9217 -0.0000
vn 0.5598 0.8286 -0.0000
vn 0.6713 0.5950 0.4420
vn 0.8333 0.5528 -0.0000
vn 0.9248 0.3805 -0.0000
vn 0.9810 0.1939 -0.0000
vn 0.9528 0.3035 -0.0000
vn 0.9814 -0.1920 -0.0000
vn 0.7616 -0.6480 -0.0000
vn 0.8333 -0.5528 -0.0000
vn 0.7101 -0.7041 -0.0000
vn 0.5598 -0.8286 -0.0000
vn 0.3879 -0.9217 -0.0000
vn 0.2010 -0.9796 -0.0000
vn 0.1971 0.9796 0.0392
vn 0.3804 0.9217 0.0757
vn 0.5490 0.8286 0.1092
vn 0.6965 0.7041 0.1385
vn 0.8173 0.5528 0.1626
vn 0.9070 0.3805 0.1804
vn 0.9622 0.1939 0.1914
vn 0.9929 -0.0000 -0.1186
vn 0.8527 -0.1755 0.4920
vn 0.9070 -0.3805 0.1804
vn 0.8173 -0.5528 0.1626
vn 0.6965 -0.7041 0.1385
vn 0.5490 -0.8286 0.1092
vn 0.3804 -0.9217 0.0757
vn 0.1971 -0.9796 0.0392
vn 0.1857 0.9796 0.0769
vn 0.5858 0.7333 -0.3451
vn 0.5172 0.8286 0.2142
vn 0.6561 0.7041 0.2718
vn 0.7699 0.5528 0.3189
vn 0.8544 0.3805 0.3539
vn 0.8062 0.4884 0.3339
vn 0.9239 -0.0000 0.3827
vn 0.8062 -0.4884 0.3339
vn 0.8544 -0.3805 0.3539
vn 0.7699 -0.5528 0.3189
vn 0.6561 -0.7041 0.2718
vn 0.5172 -0.8286 0.2142
vn 0.3584 -0.9217 0.1484
vn 0.1857 -0.9796 0.0769
vn 0.0523 0.9980 0.0350
vn 0.3255 0.9202 0.2175
vn 0.5527 0.7471 0.3693
vn 0.5905 0.7041 0.3945
vn 0.8574 0.4931 0.1476
vn 0.7689 0.3805 0.5138
vn 0.8157 0.1939 0.5450
vn 0.6182 -0.0000 0.7860
vn 0.8157 -0.1939 0.5450
vn 0.9068 -0.3471 0.2394
vn 0.6929 -0.5528 0.4630
vn 0.5905 -0.7041 0.3945
vn 0.4654 -0.8286 0.3110
vn 0.3225 -0.9217 0.2155
vn 0.1671 -0.9796 0.1117
vn 0.1421 0.9796 0.1421
vn -0.0946 0.7333 0.6733
vn 0.3958 0.8286 0.3958
vn 0.3497 0.8692 0.3497
vn 0.5931 0.5446 0.5931
vn 0.7012 0.1292 0.7012
vn 0.6937 0.1939 0.6937
vn 0.7071 -0.0000 0.7071
vn 0.7054 0.0697 0.7054
vn 0.6551 -0.3764 0.6551
vn 0.4608 -0.7585 0.4608
vn 0.5021 -0.7041 0.5021
vn 0.3958 -0.8286 0.3958
vn 0.2743 -0.9217 0.2743
vn 0.1421 -0.9796 0.1421
vn 0.1117 0.9796 0.1671
vn 0.2155 0.9217 0.3225
vn 0.3110 0.8286 0.4654
vn 0.3945 0.7041 0.5905
vn 0.1476 0.4931 0.8574
vn 0.5138 0.3805 0.7689
vn 0.7721 0.1767 0.6104
vn 0.5556 -0.0000 0.8315
vn 0.5450 -0.1939 0.8157
vn 0.2394 -0.3471 0.9068
vn 0.4630 -0.5528 0.6929
vn 0.3945 -0.7041 0.5905
vn 0.3110 -0.8286 0.4654
vn 0.2155 -0.9217 0.3225
vn 0.1117 -0.9796 0.1671
vn 0.0769 0.9796 0.1857
vn 0.1484 0.9217 0.3584
vn 0.2142 0.8286 0.5172
vn 0.2718 0.7041 0.6561
vn 0.3189 0.5528 0.7699
vn 0.2949 0.6373 0.7119
vn 0.3756 0.1918 0.9067
vn 0.3662 -0.2905 0.8840
vn 0.3754 -0.1939 0.9063
vn 0.3539 -0.3805 0.8544
vn 0.3189 -0.5528 0.7699
vn 0.2718 -0.7041 0.6561
vn 0.2142 -0.8286 0.5172
vn 0.1484 -0.9217 0.3584
vn 0.0769 -0.9796 0.1857
vn 0.0392 0.9796 0.1971
vn 0.0757 0.9217 0.3804
vn 0.1092 0.8286 0.5490
vn 0.5289 0.6114 0.5886
vn 0.1626 0.5528 0.8173
vn 0.1804 0.3805 0.9070
vn -0.1143 0.1767 0.9776
vn 0.1951 -0.0000 0.9808
vn 0.1914 -0.1939 0.9622
vn 0.4767 -0.3462 0.8081
vn 0.1626 -0.5528 0.8173
vn 0.1385 -0.7041 0.6965
vn 0.1092 -0.8286 0.5490
vn 0.0757 -0.9217 0.3804
vn 0.0392 -0.9796 0.1971
vn -0.0000 0.9796 0.2010
vn -0.0000 0.9217 0.3879
vn -0.0000 0.9399 0.3413
vn -0.0000 0.7001 0.7140
vn -0.0000 0.3472 0.9378
vn -0.0000 0.3805 0.9248
vn -0.0000 0.1939 0.9810
vn -0.0000 -0.0000 1.0000
vn -0.0000 0.0747 0.9972
vn -0.0000 -0.3765 0.9264
vn -0.0000 -0.7618 0.6478
vn -0.0000 -0.7041 0.7101
vn -0.0000 -0.8286 0.5598
vn -0.0000 -0.9217 0.3879
vn -0.0000 -0.9796 0.2010
vn -0.0392 0.9796 0.1971
vn -0.0757 0.9217 0.3804
vn -0.1092 0.8286 0.5490
vn -0.5289 0.6114 0.5886
vn -0.1626 0.5528 0.8173
vn -0.1804 0.3805 0.9070
vn -0.1914 0.1939 0.9622
vn 0.1148 -0.0000 0.9934
vn -0.1914 -0.1939 0.9622
vn -0.4767 -0.3462 0.8081
vn -0.1626 -0.5528 0.8173
vn -0.1385 -0.7041 0.6965
vn -0.1092 -0.8286 0.5490
vn -0.0757 -0.9217 0.3804
vn -0.0392 -0.9796 0.1971
vn -0.0769 0.9796 0.1857
vn -0.1484 0.9217 0.3584
vn -0.2142 0.8286 0.5172
vn -0.2718 0.7041 0.6561
vn -0.3189 0.5528 0.7699
vn -0.3539 0.3805 0.8544
vn -0.3347 0.4851 0.8079
vn -0.3827 -0.0000 0.9239
vn -0.3347 -0.4851 0.8079
vn -0.3539 -0.3805 0.8544
vn -0.3189 -0.5528 0.7699
vn -0.2718 -0.7041 0.6561
vn -0.2142 -0.8286 0.5172
vn -0.1484 -0.9217 0.3584
vn -0.0769 -0.9796 0.1857
vn -0.1117 0.9796 0.1671
vn -0.2155 0.9217 0.3225
vn 0.0772 0.6976 0.7123
vn -0.3945 0.7041 0.5905
vn -0.4630 0.5528 0.6929
vn -0.5138 0.3805 0.7689
vn -0.5450 0.1939 0.8157
vn -0.7836 -0.0000 0.6213
vn -0.5450 -0.1939 0.8157
vn -0.5138 -0.3805 0.7689
vn -0.4630 -0.5528 0.6929
vn -0.3945 -0.7041 0.5905
vn -0.3110 -0.8286 0.4654
vn -0.2155 -0.9217 0.3225
vn -0.1117 -0.9796 0.1671
vn -0.1421 0.9796 0.1421
vn -0.1431 0.9793 0.1431
vn -0.3990 0.8256 0.3990
vn -0.5844 0.5630 0.5844
vn -0.5893 0.5528 0.5893
vn -0.6539 0.3805 0.6539
vn -0.6937 0.1939 0.6937
vn -0.7071 -0.0000 0.7071
vn -0.6937 -0.1939 0.6937
vn -0.6539 -0.3805 0.6539
vn -0.3212 -0.4954 0.8071
vn -0.5021 -0.7041 0.5021
vn -0.3958 -0.8286 0.3958
vn -0.2743 -0.9217 0.2743
vn -0.1421 -0.9796 0.1421
vn -0.0000 -1.0000 -0.0000
vn -0.1671 0.9796 0.1117
vn -0.3225 0.9217 0.2155
vn -0.7123 0.6976 -0.0772
vn -0.5905 0.7041 0.3945
vn -0.6929 0.5528 0.4630
vn -0.5525 0.3435 0.7594
vn -0.8157 0.1939 0.5450
vn -0.8315 -0.0000 0.5556
vn -0.8157 -0.1939 0.5450
vn -0.8234 -0.1394 0.5501
vn -0.6955 -0.5481 0.4647
vn -0.4171 -0.8651 0.2787
vn -0.4654 -0.8286 0.3110
vn -0.3225 -0.9217 0.2155
vn -0.1671 -0.9796 0.1117
vn -0.1857 0.9796 0.0769
vn -0.3584 0.9217 0.1484
vn -0.5172 0.8286 0.2142
vn -0.6561 0.7041 0.2718
vn -0.5880 0.7713 0.2436
vn -0.8557 0.3769 0.3545
vn -0.9202 -0.0889 0.3812
vn -0.9239 -0.0000 0.3827
vn -0.9063 -0.1939 0.3754
vn -0.8544 -0.3805 0.3539
vn -0.8686 -0.4954 -0.0121
vn -0.6561 -0.7041 0.2718
vn -0.5172 -0.8286 0.2142
vn -0.3584 -0.9217 0.1484
vn -0.1857 -0.9796 0.0769
vn -0.1971 0.9796 0.0392
vn -0.3804 0.9217 0.0757
vn -0.5490 0.8286 0.1092
vn -0.6965 0.7041 0.1385
vn -0.8173 0.5528 0.1626
vn -0.9277 0.3435 -0.1463
vn -0.9622 0.1939 0.1914
vn -0.9808 -0.0000 0.1951
vn -0.8622 -0.1773 0.4745
vn -0.9070 -0.3805 0.1804
vn -0.8173 -0.5528 0.1626
vn -0.6965 -0.7041 0.1385
vn -0.5490 -0.8286 0.1092
vn -0.3804 -0.9217 0.0757
vn -0.1971 -0.9796 0.0392
vn -0.2010 0.9796 -0.0000
vn -0.3879 0.9217 -0.0000
vn -0.5598 0.8286 -0.0000
vn -0.7101 0.7041 -0.0000
vn -0.8333 0.5528 -0.0000
vn -0.9248 0.3805 -0.0000
vn -0.9810 0.1939 -0.0000
vn -0.9586 0.2849 -0.0000
vn -0.9815 -0.1917 -0.0000
vn -0.7743 -0.6328 -0.0000
vn -0.8333 -0.5528 -0.0000
vn -0.7101 -0.7041 -0.0000
vn -0.5598 -0.8286 -0.0000
vn -0.3879 -0.9217 -0.0000
vn -0.2010 -0.9796 -0.0000
vn -0.1971 0.9796 -0.0392
vn -0.3804 0.9217 -0.0757
vn -0.6288 0.6923 0.3540
vn -0.6965 0.7041 -0.1385
vn -0.8173 0.5528 -0.1626
vn -0.9070 0.3805 -0.1804
vn -0.9622 0.1939 -0.1914
vn -0.9808 -0.0000 -0.1951
vn -0.8622 -0.1773 -0.4745
vn -0.9070 -0.3805 -0.1804
vn -0.8173 -0.5528 -0.1626
vn -0.6965 -0.7041 -0.1385
vn -0.5490 -0.8286 -0.1092
vn -0.3804 -0.9217 -0.0757
vn -0.1971 -0.9796 -0.0392
vn -0.1857 0.9796 -0.0769
vn -0.1795 0.9809 -0.0744
vn -0.5209 0.8259 -0.2158
vn -0.7676 0.5566 -0.3179
vn -0.7699 0.5528 -0.3189
vn -0.8544 0.3805 -0.3539
vn -0.9063 0.1939 -0.3754
vn -0.9974 -0.0000 -0.0719
vn -0.9063 -0.1939 -0.3754
vn -0.8544 -0.3805 -0.3539
vn -0.7699 -0.5528 -0.3189
vn -0.6561 -0.7041 -0.2718
vn -0.5172 -0.8286 -0.2142
vn -0.3584 -0.9217 -0.1484
vn -0.1857 -0.9796 -0.0769
vn -0.1671 0.9796 -0.1117
vn -0.3225 0.9217 -0.2155
vn -0.1944 0.6923 -0.6949
vn -0.5905 0.7041 -0.3945
vn -0.6929 0.5528 -0.4630
vn -0.7689 0.3805 -0.5138
vn -0.7233 0.4932 -0.4833
vn -0.8315 -0.0000 -0.5556
vn -0.7233 -0.4932 -0.4833
vn -0.7689 -0.3805 -0.5138
vn -0.6929 -0.5528 -0.4630
vn -0.5905 -0.7041 -0.3945
vn -0.4654 -0.8286 -0.3110
vn -0.3225 -0.9217 -0.2155
vn -0.1671 -0.9796 -0.1117
vn -0.1421 0.9796 -0.1421
vn -0.2743 0.9217 -0.2743
vn -0.3958 0.8286 -0.3958
vn -0.5021 0.7041 -0.5021
vn -0.5893 0.5528 -0.5893
vn -0.6539 0.3805 -0.6539
vn -0.6937 0.1939 -0.6937
vn -0.4481 -0.0000 -0.8940
vn -0.6937 -0.1939 -0.6937
vn -0.6539 -0.3805 -0.6539
vn -0.5893 -0.5528 -0.5893
vn -0.5021 -0.7041 -0.5021
vn -0.3958 -0.8286 -0.3958
vn -0.2743 -0.9217 -0.2743
vn -0.1421 -0.9796 -0.1421
vn -0.1117 0.9796 -0.1671
vn -0.2155 0.9217 -0.3225
vn -0.3110 0.8286 -0.4654
vn -0.3945 0.7041 -0.5905
vn -0.4630 0.5528 -0.6929
vn -0.7791 0.3377 -0.5282
vn -0.5450 0.1939 -0.8157
vn -0.5556 -0.0000 -0.8315
vn -0.5450 -0.1939 -0.8157
vn -0.5138 -0.3805 -0.7689
vn -0.7407 -0.4905 -0.4592
vn -0.3945 -0.7041 -0.5905
vn -0.3110 -0.8286 -0.4654
vn -0.2155 -0.9217 -0.3225
vn -0.1117 -0.9796 -0.1671
vn -0.0769 0.9796 -0.1857
vn -0.1484 0.9217 -0.3584
vn -0.2142 0.8286 -0.5172
vn -0.2718 0.7041 -0.6561
vn -0.2344 0.7904 -0.5659
vn -0.3543 0.3778 -0.8554
vn -0.3800 -0.1183 -0.9174
vn -0.3827 -0.0000 -0.9239
vn -0.3754 -0.1939 -0.9063
vn -0.3797 -0.1239 -0.9168
vn -0.3199 -0.5487 -0.7724
vn -0.1865 -0.8732 -0.4503
vn -0.2142 -0.8286 -0.5172
vn -0.1484 -0.9217 -0.3584
vn -0.0769 -0.9796 -0.1857
vn -0.0392 0.9796 -0.1971
vn -0.0757 0.9217 -0.3804
vn -0.1092 0.8286 -0.5490
vn -0.1385 0.7041 -0.6965
vn -0.1626 0.5528 -0.8173
vn 0.1774 0.3377 -0.9244
vn -0.1914 0.1939 -0.9622
vn -0.1951 -0.0000 -0.9808
vn -0.1914 -0.1939 -0.9622
vn -0.1804 -0.3805 -0.9070
vn 0.1991 -0.4905 -0.8484
vn -0.1385 -0.7041 -0.6965
vn -0.1092 -0.8286 -0.5490
vn -0.0757 -0.9217 -0.3804
vn -0.0392 -0.9796 -0.1971
vn -0.0000 0.9796 -0.2010
vn -0.0000 0.9217 -0.3879
vn -0.0000 0.7041 -0.7101
vn -0.0000 0.3805 -0.9248
vn -0.0000 -0.3805 -0.9248
vn -0.0000 -0.7041 -0.7101
vn -0.0000 -0.8286 -0.5598
vn -0.0000 -0.9217 -0.3879
vn -0.0000 -0.9796 -0.2010
vt 0.750000 0.250000
vt 0.718750 0.312500
vt 0.718750 0.250000
vt 0.750000 0.750000
vt 0.718750 0.687500
vt 0.750000 0.687500
vt 0.718750 0.187500
vt 0.750000 0.187500
vt 0.750000 0.625000
vt 0.718750 0.625000
vt 0.718750 0.125000
vt 0.750000 0.125000
vt 0.750000 0.562500
vt 0.718750 0.562500
vt 0.718750 0.062500
vt 0.750000 0.062500
vt 0.718750 0.500000
vt 0.750000 0.500000
vt 0.750000 0.937500
vt 0.734375 1.000000
vt 0.718750 0.937500
vt 0.734375 0.000000
vt 0.750000 0.437500
vt 0.718750 0.437500
vt 0.750000 0.875000
vt 0.718750 0.875000
vt 0.718750 0.375000
vt 0.750000 0.375000
vt 0.750000 0.812500
vt 0.718750 0.812500
vt 0.750000 0.312500
vt 0.718750 0.750000
vt 0.687500 0.375000
vt 0.687500 0.312500
vt 0.687500 0.750000
vt 0.687500 0.250000
vt 0.687500 0.687500
vt 0.687500 0.187500
vt 0.687500 0.625000
vt 0.687500 0.125000
vt 0.687500 0.562500
vt 0.687500 0.062500
vt 0.687500 0.500000
vt 0.703125 1.000000
vt 0.687500 0.937500
vt 0.703125 0.000000
vt 0.687500 0.437500
vt 0.687500 0.875000
vt 0.687500 0.812500
vt 0.656250 0.125000
vt 0.656250 0.062500
vt 0.656250 0.562500
vt 0.656250 0.500000
vt 0.671875 1.000000
vt 0.656250 0.937500
vt 0.671875 0.000000
vt 0.656250 0.437500
vt 0.656250 0.875000
vt 0.656250 0.375000
vt 0.656250 0.812500
vt 0.656250 0.312500
vt 0.656250 0.750000
vt 0.656250 0.250000
vt 0.656250 0.687500
vt 0.656250 0.187500
vt 0.656250 0.625000
vt 0.625000 0.750000
vt 0.625000 0.250000
vt 0.625000 0.687500
vt 0.625000 0.187500
vt 0.625000 0.625000
vt 0.625000 0.125000
vt 0.625000 0.562500
vt 0.625000 0.062500
vt 0.625000 0.500000
vt 0.640625 1.000000
vt 0.625000 0.937500
vt 0.640625 0.000000
vt 0.625000 0.437500
vt 0.625000 0.875000
vt 0.625000 0.375000
vt 0.625000 0.812500
vt 0.625000 0.312500
vt 0.593750 0.562500
vt 0.593750 0.500000
vt 0.609375 1.000000
vt 0.593750 0.937500
vt 0.609375 0.000000
vt 0.593750 0.062500
vt 0.593750 0.437500
vt 0.593750 0.875000
vt 0.593750 0.375000
vt 0.593750 0.812500
vt 0.593750 0.312500
vt 0.593750 0.750000
vt 0.593750 0.250000
vt 0.593750 0.687500
vt 0.593750 0.187500
vt 0.593750 0.625000
vt 0.593750 0.125000
vt 0.562500 0.250000
vt 0.562500 0.750000
vt 0.562500 0.687500
vt 0.562500 0.187500
vt 0.562500 0.625000
vt 0.562500 0.125000
vt 0.562500 0.562500
vt 0.562500 0.062500
vt 0.562500 0.500000
vt 0.578125 1.000000
vt 0.562500 0.937500
vt 0.578125 0.000000
vt 0.562500 0.437500
vt 0.562500 0.875000
vt 0.562500 0.375000
vt 0.562500 0.812500
vt 0.562500 0.312500
vt 0.546875 0.000000
vt 0.531250 0.062500
vt 0.531250 0.437500
vt 0.531250 0.937500
vt 0.531250 0.875000
vt 0.531250 0.375000
vt 0.531250 0.812500
vt 0.531250 0.312500
vt 0.531250 0.750000
vt 0.531250 0.250000
vt 0.531250 0.687500
vt 0.531250 0.187500
vt 0.531250 0.625000
vt 0.531250 0.125000
vt 0.531250 0.562500
vt 0.531250 0.500000
vt 0.546875 1.000000
vt 0.500000 0.250000
vt 0.500000 0.187500
vt 0.500000 0.625000
vt 0.500000 0.125000
vt 0.500000 0.562500
vt 0.500000 0.062500
vt 0.500000 0.500000
vt 0.515625 1.000000
vt 0.500000 0.937500
vt 0.515625 0.000000
vt 0.500000 0.437500
vt 0.500000 0.875000
vt 0.500000 0.375000
vt 0.500000 0.812500
vt 0.500000 0.312500
vt 0.500000 0.750000
vt 0.500000 0.687500
vt 0.468750 0.937500
vt 0.468750 0.875000
vt 0.468750 0.437500
vt 0.468750 0.375000
vt 0.468750 0.812500
vt 0.468750 0.312500
vt 0.468750 0.750000
vt 0.468750 0.250000
vt 0.468750 0.687500
vt 0.468750 0.187500
vt 0.468750 0.625000
vt 0.468750 0.125000
vt 0.468750 0.562500
vt 0.468750 0.062500
vt 0.468750 0.500000
vt 0.484375 1.000000
vt 0.484375 0.000000
vt 0.437500 0.625000
vt 0.437500 0.125000
vt 0.437500 0.562500
vt 0.437500 0.062500
vt 0.437500 0.500000
vt 0.453125 1.000000
vt 0.437500 0.937500
vt 0.453125 0.000000
vt 0.437500 0.437500
vt 0.437500 0.875000
vt 0.437500 0.375000
vt 0.437500 0.812500
vt 0.437500 0.312500
vt 0.437500 0.750000
vt 0.437500 0.250000
vt 0.437500 0.687500
vt 0.437500 0.187500
vt 0.406250 0.375000
vt 0.406250 0.812500
vt 0.406250 0.312500
vt 0.406250 0.750000
vt 0.406250 0.250000
vt 0.406250 0.687500
vt 0.406250 0.187500
vt 0.406250 0.625000
vt 0.406250 0.125000
vt 0.406250 0.562500
vt 0.406250 0.062500
vt 0.406250 0.500000
vt 0.421875 1.000000
vt 0.406250 0.937500
vt 0.421875 0.000000
vt 0.406250 0.437500
vt 0.406250 0.875000
vt 0.375000 0.125000
vt 0.375000 0.625000
vt 0.375000 0.562500
vt 0.375000 0.062500
vt 0.375000 0.500000
vt 0.390625 1.000000
vt 0.375000 0.937500
vt 0.390625 0.000000
vt 0.375000 0.437500
vt 0.375000 0.875000
vt 0.375000 0.375000
vt 0.375000 0.812500
vt 0.375000 0.312500
vt 0.375000 0.750000
vt 0.375000 0.250000
vt 0.375000 0.687500
vt 0.375000 0.187500
vt 0.343750 0.875000
vt 0.343750 0.812500
vt 0.343750 0.375000
vt 0.343750 0.312500
vt 0.343750 0.750000
vt 0.343750 0.250000
vt 0.343750 0.687500
vt 0.343750 0.187500
vt 0.343750 0.625000
vt 0.343750 0.125000
vt 0.343750 0.562500
vt 0.343750 0.062500
vt 0.343750 0.500000
vt 0.359375 1.000000
vt 0.343750 0.937500
vt 0.359375 0.000000
vt 0.343750 0.437500
vt 0.312500 0.625000
vt 0.312500 0.562500
vt 0.312500 0.125000
vt 0.312500 0.062500
vt 0.312500 0.500000
vt 0.328125 1.000000
vt 0.312500 0.937500
vt 0.328125 0.000000
vt 0.312500 0.437500
vt 0.312500 0.875000
vt 0.312500 0.375000
vt 0.312500 0.812500
vt 0.312500 0.312500
vt 0.312500 0.750000
vt 0.312500 0.250000
vt 0.312500 0.687500
vt 0.312500 0.187500
vt 0.281250 0.375000
vt 0.281250 0.312500
vt 0.281250 0.750000
vt 0.281250 0.250000
vt 0.281250 0.687500
vt 0.281250 0.187500
vt 0.281250 0.625000
vt 0.281250 0.125000
vt 0.281250 0.562500
vt 0.281250 0.062500
vt 0.281250 0.500000
vt 0.296875 1.000000
vt 0.281250 0.937500
vt 0.296875 0.000000
vt 0.281250 0.437500
vt 0.281250 0.875000
vt 0.281250 0.812500
vt 0.250000 0.062500
vt 0.250000 0.562500
vt 0.250000 0.500000
vt 0.265625 1.000000
vt 0.250000 0.937500
vt 0.265625 0.000000
vt 0.250000 0.437500
vt 0.250000 0.875000
vt 0.250000 0.375000
vt 0.250000 0.812500
vt 0.250000 0.312500
vt 0.250000 0.750000
vt 0.250000 0.250000
vt 0.250000 0.687500
vt 0.250000 0.187500
vt 0.250000 0.625000
vt 0.250000 0.125000
vt 0.218750 0.250000
vt 0.218750 0.750000
vt 0.218750 0.687500
vt 0.218750 0.187500
vt 0.218750 0.625000
vt 0.218750 0.125000
vt 0.218750 0.562500
vt 0.218750 0.062500
vt 0.218750 0.500000
vt 0.234375 1.000000
vt 0.218750 0.937500
vt 0.234375 0.000000
vt 0.218750 0.437500
vt 0.218750 0.875000
vt 0.218750 0.375000
vt 0.218750 0.812500
vt 0.218750 0.312500
vt 0.203125 1.000000
vt 0.187500 0.937500
vt 0.203125 0.000000
vt 0.187500 0.062500
vt 0.187500 0.437500
vt 0.187500 0.875000
vt 0.187500 0.375000
vt 0.187500 0.812500
vt 0.187500 0.312500
vt 0.187500 0.750000
vt 0.187500 0.250000
vt 0.187500 0.687500
vt 0.187500 0.187500
vt 0.187500 0.625000
vt 0.187500 0.125000
vt 0.187500 0.562500
vt 0.187500 0.500000
vt 0.156250 0.750000
vt 0.156250 0.687500
vt 0.156250 0.250000
vt 0.156250 0.187500
vt 0.156250 0.625000
vt 0.156250 0.125000
vt 0.156250 0.562500
vt 0.156250 0.062500
vt 0.156250 0.500000
vt 0.171875 1.000000
vt 0.156250 0.937500
vt 0.171875 0.000000
vt 0.156250 0.437500
vt 0.156250 0.875000
vt 0.156250 0.375000
vt 0.156250 0.812500
vt 0.156250 0.312500
vt 0.125000 0.437500
vt 0.125000 0.875000
vt 0.125000 0.375000
vt 0.125000 0.812500
vt 0.125000 0.312500
vt 0.125000 0.750000
vt 0.125000 0.250000
vt 0.125000 0.687500
vt 0.125000 0.187500
vt 0.125000 0.625000
vt 0.125000 0.125000
vt 0.125000 0.562500
vt 0.125000 0.062500
vt 0.125000 0.500000
vt 0.140625 1.000000
vt 0.125000 0.937500
vt 0.140625 0.000000
vt 0.093750 0.250000
vt 0.093750 0.187500
vt 0.093750 0.625000
vt 0.093750 0.125000
vt 0.093750 0.562500
vt 0.093750 0.062500
vt 0.093750 0.500000
vt 0.109375 1.000000
vt 0.093750 0.937500
vt 0.109375 0.000000
vt 0.093750 0.437500
vt 0.093750 0.875000
vt 0.093750 0.375000
vt 0.093750 0.812500
vt 0.093750 0.312500
vt 0.093750 0.750000
vt 0.093750 0.687500
vt 0.062500 0.937500
vt 0.062500 0.875000
vt 0.062500 0.375000
vt 0.062500 0.812500
vt 0.062500 0.312500
vt 0.062500 0.750000
vt 0.062500 0.250000
vt 0.062500 0.687500
vt 0.062500 0.187500
vt 0.062500 0.625000
vt 0.062500 0.125000
vt 0.062500 0.562500
vt 0.062500 0.062500
vt 0.062500 0.500000
vt 0.078125 1.000000
vt 0.078125 0.000000
vt 0.062500 0.437500
vt 0.031250 0.625000
vt 0.031250 0.187500
vt 0.031250 0.125000
vt 0.031250 0.562500
vt 0.031250 0.062500
vt 0.031250 0.500000
vt 0.046875 1.000000
vt 0.031250 0.937500
vt 0.046875 0.000000
vt 0.031250 0.437500
vt 0.031250 0.875000
vt 0.031250 0.375000
vt 0.031250 0.812500
vt 0.031250 0.312500
vt 0.031250 0.750000
vt 0.031250 0.250000
vt 0.031250 0.687500
vt 0.000000 0.375000
vt 0.000000 0.875000
vt 0.000000 0.812500
vt 0.000000 0.312500
vt 0.000000 0.750000
vt 0.000000 0.250000
vt 0.000000 0.687500
vt 0.000000 0.187500
vt 0.000000 0.625000
vt 0.000000 0.125000
vt 0.000000 0.562500
vt 0.000000 0.062500
vt 0.000000 0.500000
vt 0.015625 1.000000
vt 0.000000 0.937500
vt 0.015625 0.000000
vt 0.000000 0.437500
vt 1.000000 0.187500
vt 0.968750 0.125000
vt 1.000000 0.125000
vt 1.000000 0.562500
vt 0.968750 0.625000
vt 0.968750 0.562500
vt 1.000000 0.062500
vt 0.968750 0.062500
vt 1.000000 0.500000
vt 0.968750 0.500000
vt 1.000000 0.937500
vt 0.984375 1.000000
vt 0.968750 0.937500
vt 0.984375 0.000000
vt 0.968750 0.437500
vt 1.000000 0.437500
vt 0.968750 0.875000
vt 1.000000 0.875000
vt 1.000000 0.375000
vt 0.968750 0.375000
vt 1.000000 0.812500
vt 0.968750 0.812500
vt 1.000000 0.312500
vt 0.968750 0.312500
vt 0.968750 0.750000
vt 1.000000 0.750000
vt 0.968750 0.250000
vt 1.000000 0.250000
vt 1.000000 0.687500
vt 0.968750 0.687500
vt 0.968750 0.187500
vt 1.000000 0.625000
vt 0.937500 0.375000
vt 0.937500 0.312500
vt 0.937500 0.750000
vt 0.937500 0.250000
vt 0.937500 0.687500
vt 0.937500 0.187500
vt 0.937500 0.625000
vt 0.937500 0.125000
vt 0.937500 0.562500
vt 0.937500 0.062500
vt 0.937500 0.500000
vt 0.953125 1.000000
vt 0.937500 0.937500
vt 0.953125 0.000000
vt 0.937500 0.437500
vt 0.937500 0.875000
vt 0.937500 0.812500
vt 0.906250 0.125000
vt 0.906250 0.062500
vt 0.906250 0.562500
vt 0.906250 0.500000
vt 0.921875 1.000000
vt 0.906250 0.937500
vt 0.921875 0.000000
vt 0.906250 0.437500
vt 0.906250 0.875000
vt 0.906250 0.375000
vt 0.906250 0.812500
vt 0.906250 0.312500
vt 0.906250 0.750000
vt 0.906250 0.250000
vt 0.906250 0.687500
vt 0.906250 0.187500
vt 0.906250 0.625000
vt 0.875000 0.750000
vt 0.875000 0.250000
vt 0.875000 0.687500
vt 0.875000 0.187500
vt 0.875000 0.625000
vt 0.875000 0.125000
vt 0.875000 0.562500
vt 0.875000 0.062500
vt 0.875000 0.500000
vt 0.890625 1.000000
vt 0.875000 0.937500
vt 0.890625 0.000000
vt 0.875000 0.437500
vt 0.875000 0.875000
vt 0.875000 0.375000
vt 0.875000 0.812500
vt 0.875000 0.312500
vt 0.843750 0.562500
vt 0.843750 0.500000
vt 0.859375 1.000000
vt 0.843750 0.937500
vt 0.859375 0.000000
vt 0.843750 0.062500
vt 0.843750 0.437500
vt 0.843750 0.875000
vt 0.843750 0.375000
vt 0.843750 0.812500
vt 0.843750 0.312500
vt 0.843750 0.750000
vt 0.843750 0.250000
vt 0.843750 0.687500
vt 0.843750 0.187500
vt 0.843750 0.625000
vt 0.843750 0.125000
vt 0.812500 0.250000
vt 0.812500 0.750000
vt 0.812500 0.687500
vt 0.812500 0.187500
vt 0.812500 0.625000
vt 0.812500 0.125000
vt 0.812500 0.562500
vt 0.812500 0.062500
vt 0.812500 0.500000
vt 0.828125 1.000000
vt 0.812500 0.937500
vt 0.828125 0.000000
vt 0.812500 0.437500
vt 0.812500 0.875000
vt 0.812500 0.375000
vt 0.812500 0.812500
vt 0.812500 0.312500
vt 0.796875 1.000000
vt 0.781250 0.937500
vt 0.796875 0.000000
vt 0.781250 0.062500
vt 0.781250 0.437500
vt 0.781250 0.875000
vt 0.781250 0.375000
vt 0.781250 0.812500
vt 0.781250 0.312500
vt 0.781250 0.750000
vt 0.781250 0.250000
vt 0.781250 0.687500
vt 0.781250 0.187500
vt 0.781250 0.625000
vt 0.781250 0.125000
vt 0.781250 0.562500
vt 0.781250 0.500000
vt 0.765625 1.000000
vt 0.765625 0.000000
s 1
usemtl マテリアル.002
f 479/1/479 17/2/17 18/3/18
f 476/4/476 11/5/11 2/6/2
f 479/1/479 19/7/19 480/8/480
f 477/9/477 11/5/11 12/10/12
f 480/8/480 20/11/20 481/12/481
f 3/13/3 12/10/12 13/14/13
f 481/12/481 21/15/21 482/16/482
f 3/13/3 14/17/14 4/18/4
f 474/19/474 82/20/82 7/21/7
f 308/22/308 482/16/482 21/15/21
f 5/23/5 14/17/14 15/24/15
f 475/25/475 7/21/7 8/26/8
f 5/23/5 16/27/16 478/28/478
f 1/29/1 8/26/8 9/30/9
f 478/28/478 17/2/17 6/31/6
f 476/4/476 9/30/9 10/32/10
f 17/2/17 31/33/31 32/34/32
f 9/30/9 25/35/25 10/32/10
f 18/3/18 32/34/32 33/36/33
f 10/32/10 26/37/26 11/5/11
f 19/7/19 33/36/33 34/38/34
f 11/5/11 27/39/27 12/10/12
f 20/11/20 34/38/34 35/40/35
f 13/14/13 27/39/27 28/41/28
f 20/11/20 36/42/36 21/15/21
f 13/14/13 29/43/29 14/17/14
f 7/21/7 82/44/82 22/45/22
f 308/46/308 21/15/21 36/42/36
f 14/17/14 30/47/30 15/24/15
f 8/26/8 22/45/22 23/48/23
f 16/27/16 30/47/30 31/33/31
f 8/26/8 24/49/24 9/30/9
f 36/42/36 50/50/50 51/51/51
f 29/43/29 43/52/43 44/53/44
f 22/45/22 82/54/82 37/55/37
f 308/56/308 36/42/36 51/51/51
f 29/43/29 45/57/45 30/47/30
f 22/45/22 38/58/38 23/48/23
f 30/47/30 46/59/46 31/33/31
f 23/48/23 39/60/39 24/49/24
f 32/34/32 46/59/46 47/61/47
f 25/35/25 39/60/39 40/62/40
f 32/34/32 48/63/48 33/36/33
f 25/35/25 41/64/41 26/37/26
f 34/38/34 48/63/48 49/65/49
f 26/37/26 42/66/42 27/39/27
f 35/40/35 49/65/49 50/50/50
f 28/41/28 42/66/42 43/52/43
f 39/60/39 55/67/55 40/62/40
f 47/61/47 63/68/63 48/63/48
f 41/64/41 55/67/55 56/69/56
f 49/65/49 63/68/63 64/70/64
f 41/64/41 57/71/57 42/66/42
f 50/50/50 64/70/64 65/72/65
f 43/52/43 57/71/57 58/73/58
f 51/51/51 65/72/65 66/74/66
f 44/53/44 58/73/58 59/75/59
f 37/55/37 82/76/82 52/77/52
f 308/78/308 51/51/51 66/74/66
f 44/53/44 60/79/60 45/57/45
f 37/55/37 53/80/53 38/58/38
f 46/59/46 60/79/60 61/81/61
f 38/58/38 54/82/54 39/60/39
f 46/59/46 62/83/62 47/61/47
f 59/75/59 73/84/73 74/85/74
f 52/77/52 82/86/82 67/87/67
f 308/88/308 66/74/66 81/89/81
f 59/75/59 75/90/75 60/79/60
f 53/80/53 67/87/67 68/91/68
f 60/79/60 76/92/76 61/81/61
f 54/82/54 68/91/68 69/93/69
f 62/83/62 76/92/76 77/94/77
f 54/82/54 70/95/70 55/67/55
f 62/83/62 78/96/78 63/68/63
f 56/69/56 70/95/70 71/97/71
f 64/70/64 78/96/78 79/98/79
f 57/71/57 71/97/71 72/99/72
f 64/70/64 80/100/80 65/72/65
f 57/71/57 73/84/73 58/73/58
f 65/72/65 81/89/81 66/74/66
f 77/94/77 94/101/94 78/96/78
f 71/97/71 86/102/86 87/103/87
f 79/98/79 94/101/94 95/104/95
f 71/97/71 88/105/88 72/99/72
f 79/98/79 96/106/96 80/100/80
f 73/84/73 88/105/88 89/107/89
f 81/89/81 96/106/96 97/108/97
f 74/85/74 89/107/89 90/109/90
f 67/87/67 82/110/82 83/111/83
f 308/112/308 81/89/81 97/108/97
f 74/85/74 91/113/91 75/90/75
f 67/87/67 84/114/84 68/91/68
f 75/90/75 92/115/92 76/92/76
f 68/91/68 85/116/85 69/93/69
f 77/94/77 92/115/92 93/117/93
f 69/93/69 86/102/86 70/95/70
f 308/118/308 97/108/97 112/119/112
f 90/109/90 106/120/106 91/113/91
f 84/114/84 98/121/98 99/122/99
f 91/113/91 107/123/107 92/115/92
f 85/116/85 99/122/99 100/124/100
f 93/117/93 107/123/107 108/125/108
f 86/102/86 100/124/100 101/126/101
f 93/117/93 109/127/109 94/101/94
f 86/102/86 102/128/102 87/103/87
f 95/104/95 109/127/109 110/129/110
f 87/103/87 103/130/103 88/105/88
f 95/104/95 111/131/111 96/106/96
f 89/107/89 103/130/103 104/132/104
f 96/106/96 112/119/112 97/108/97
f 90/109/90 104/132/104 105/133/105
f 83/111/83 82/134/82 98/121/98
f 110/129/110 124/135/124 125/136/125
f 102/128/102 118/137/118 103/130/103
f 110/129/110 126/138/126 111/131/111
f 104/132/104 118/137/118 119/139/119
f 112/119/112 126/138/126 127/140/127
f 105/133/105 119/139/119 120/141/120
f 98/121/98 82/142/82 113/143/113
f 308/144/308 112/119/112 127/140/127
f 106/120/106 120/141/120 121/145/121
f 98/121/98 114/146/114 99/122/99
f 106/120/106 122/147/122 107/123/107
f 100/124/100 114/146/114 115/148/115
f 108/125/108 122/147/122 123/149/123
f 100/124/100 116/150/116 101/126/101
f 108/125/108 124/135/124 109/127/109
f 102/128/102 116/150/116 117/151/117
f 114/146/114 128/152/128 129/153/129
f 122/147/122 136/154/136 137/155/137
f 114/146/114 130/156/130 115/148/115
f 123/149/123 137/155/137 138/157/138
f 115/148/115 131/158/131 116/150/116
f 123/149/123 139/159/139 124/135/124
f 117/151/117 131/158/131 132/160/132
f 125/136/125 139/159/139 140/161/140
f 117/151/117 133/162/133 118/137/118
f 126/138/126 140/161/140 141/163/141
f 119/139/119 133/162/133 134/164/134
f 126/138/126 142/165/142 127/140/127
f 120/141/120 134/164/134 135/166/135
f 113/143/113 82/167/82 128/152/128
f 308/168/308 127/140/127 142/165/142
f 120/141/120 136/154/136 121/145/121
f 132/160/132 148/169/148 133/162/133
f 140/161/140 156/170/156 141/163/141
f 134/164/134 148/169/148 149/171/149
f 142/165/142 156/170/156 157/172/157
f 135/166/135 149/171/149 150/173/150
f 128/152/128 82/174/82 143/175/143
f 308/176/308 142/165/142 157/172/157
f 135/166/135 151/177/151 136/154/136
f 128/152/128 144/178/144 129/153/129
f 136/154/136 152/179/152 137/155/137
f 129/153/129 145/180/145 130/156/130
f 138/157/138 152/179/152 153/181/153
f 130/156/130 146/182/146 131/158/131
f 138/157/138 154/183/154 139/159/139
f 132/160/132 146/182/146 147/184/147
f 140/161/140 154/183/154 155/185/155
f 151/177/151 167/186/167 152/179/152
f 144/178/144 160/187/160 145/180/145
f 153/181/153 167/186/167 168/188/168
f 145/180/145 161/189/161 146/182/146
f 153/181/153 169/190/169 154/183/154
f 147/184/147 161/189/161 162/191/162
f 155/185/155 169/190/169 170/192/170
f 147/184/147 163/193/163 148/169/148
f 156/170/156 170/192/170 171/194/171
f 149/171/149 163/193/163 164/195/164
f 157/172/157 171/194/171 172/196/172
f 149/171/149 165/197/165 150/173/150
f 143/175/143 82/198/82 158/199/158
f 308/200/308 157/172/157 172/196/172
f 151/177/151 165/197/165 166/201/166
f 144/178/144 158/199/158 159/202/159
f 170/192/170 186/203/186 171/194/171
f 164/195/164 178/204/178 179/205/179
f 172/196/172 186/203/186 187/206/187
f 165/197/165 179/205/179 180/207/180
f 158/199/158 82/208/82 173/209/173
f 308/210/308 172/196/172 187/206/187
f 165/197/165 181/211/181 166/201/166
f 158/199/158 174/212/174 159/202/159
f 167/186/167 181/211/181 182/213/182
f 160/187/160 174/212/174 175/214/175
f 167/186/167 183/215/183 168/188/168
f 160/187/160 176/216/176 161/189/161
f 168/188/168 184/217/184 169/190/169
f 162/191/162 176/216/176 177/218/177
f 170/192/170 184/217/184 185/219/185
f 162/191/162 178/204/178 163/193/163
f 175/214/175 189/220/189 190/221/190
f 183/215/183 197/222/197 198/223/198
f 175/214/175 191/224/191 176/216/176
f 183/215/183 199/225/199 184/217/184
f 176/216/176 192/226/192 177/218/177
f 185/219/185 199/225/199 200/227/200
f 178/204/178 192/226/192 193/228/193
f 185/219/185 201/229/201 186/203/186
f 179/205/179 193/228/193 194/230/194
f 187/206/187 201/229/201 202/231/202
f 180/207/180 194/230/194 195/232/195
f 173/209/173 82/233/82 188/234/188
f 308/235/308 187/206/187 202/231/202
f 180/207/180 196/236/196 181/211/181
f 173/209/173 189/220/189 174/212/174
f 181/211/181 197/222/197 182/213/182
f 194/230/194 208/237/208 209/238/209
f 202/231/202 216/239/216 217/240/217
f 194/230/194 210/241/210 195/232/195
f 188/234/188 82/242/82 203/243/203
f 308/244/308 202/231/202 217/240/217
f 195/232/195 211/245/211 196/236/196
f 188/234/188 204/246/204 189/220/189
f 196/236/196 212/247/212 197/222/197
f 189/220/189 205/248/205 190/221/190
f 198/223/198 212/247/212 213/249/213
f 190/221/190 206/250/206 191/224/191
f 198/223/198 214/251/214 199/225/199
f 192/226/192 206/250/206 207/252/207
f 200/227/200 214/251/214 215/253/215
f 192/226/192 208/237/208 193/228/193
f 201/229/201 215/253/215 216/239/216
f 213/249/213 227/254/227 228/255/228
f 205/248/205 221/256/221 206/250/206
f 213/249/213 229/257/229 214/251/214
f 207/252/207 221/256/221 222/258/222
f 215/253/215 229/257/229 230/259/230
f 207/252/207 223/260/223 208/237/208
f 216/239/216 230/259/230 231/261/231
f 208/237/208 224/262/224 209/238/209
f 216/239/216 232/263/232 217/240/217
f 210/241/210 224/262/224 225/264/225
f 203/243/203 82/265/82 218/266/218
f 308/267/308 217/240/217 232/263/232
f 210/241/210 226/268/226 211/245/211
f 204/246/204 218/266/218 219/269/219
f 211/245/211 227/254/227 212/247/212
f 204/246/204 220/270/220 205/248/205
f 231/261/231 247/271/247 232/263/232
f 225/264/225 239/272/239 240/273/240
f 218/266/218 82/274/82 233/275/233
f 308/276/308 232/263/232 247/271/247
f 225/264/225 241/277/241 226/268/226
f 219/269/219 233/275/233 234/278/234
f 227/254/227 241/277/241 242/279/242
f 219/269/219 235/280/235 220/270/220
f 227/254/227 243/281/243 228/255/228
f 221/256/221 235/280/235 236/282/236
f 228/255/228 244/283/244 229/257/229
f 221/256/221 237/284/237 222/258/222
f 230/259/230 244/283/244 245/285/245
f 222/258/222 238/286/238 223/260/223
f 230/259/230 246/287/246 231/261/231
f 224/262/224 238/286/238 239/272/239
f 243/281/243 259/288/259 244/283/244
f 237/284/237 251/289/251 252/290/252
f 245/285/245 259/288/259 260/291/260
f 237/284/237 253/292/253 238/286/238
f 245/285/245 261/293/261 246/287/246
f 239/272/239 253/292/253 254/294/254
f 246/287/246 262/295/262 247/271/247
f 240/273/240 254/294/254 255/296/255
f 233/275/233 82/297/82 248/298/248
f 308/299/308 247/271/247 262/295/262
f 240/273/240 256/300/256 241/277/241
f 234/278/234 248/298/248 249/301/249
f 241/277/241 257/302/257 242/279/242
f 235/280/235 249/301/249 250/303/250
f 243/281/243 257/302/257 258/304/258
f 235/280/235 251/289/251 236/282/236
f 248/298/248 82/305/82 263/306/263
f 308/307/308 262/295/262 277/308/277
f 255/296/255 271/309/271 256/300/256
f 249/301/249 263/306/263 264/310/264
f 256/300/256 272/311/272 257/302/257
f 249/301/249 265/312/265 250/303/250
f 258/304/258 272/311/272 273/313/273
f 250/303/250 266/314/266 251/289/251
f 258/304/258 274/315/274 259/288/259
f 252/290/252 266/314/266 267/316/267
f 260/291/260 274/315/274 275/317/275
f 252/290/252 268/318/268 253/292/253
f 261/293/261 275/317/275 276/319/276
f 254/294/254 268/318/268 269/320/269
f 261/293/261 277/308/277 262/295/262
f 255/296/255 269/320/269 270/321/270
f 267/316/267 281/322/281 282/323/282
f 275/317/275 289/324/289 290/325/290
f 267/316/267 283/326/283 268/318/268
f 276/319/276 290/325/290 291/327/291
f 269/320/269 283/326/283 284/328/284
f 277/308/277 291/327/291 292/329/292
f 269/320/269 285/330/285 270/321/270
f 263/306/263 82/331/82 278/332/278
f 308/333/308 277/308/277 292/329/292
f 271/309/271 285/330/285 286/334/286
f 263/306/263 279/335/279 264/310/264
f 271/309/271 287/336/287 272/311/272
f 264/310/264 280/337/280 265/312/265
f 273/313/273 287/336/287 288/338/288
f 265/312/265 281/322/281 266/314/266
f 273/313/273 289/324/289 274/315/274
f 285/330/285 301/339/301 286/334/286
f 278/332/278 294/340/294 279/335/279
f 286/334/286 302/341/302 287/336/287
f 280/337/280 294/340/294 295/342/295
f 288/338/288 302/341/302 303/343/303
f 280/337/280 296/344/296 281/322/281
f 288/338/288 304/345/304 289/324/289
f 282/323/282 296/344/296 297/346/297
f 290/325/290 304/345/304 305/347/305
f 282/323/282 298/348/298 283/326/283
f 291/327/291 305/347/305 306/349/306
f 284/328/284 298/348/298 299/350/299
f 292/329/292 306/349/306 307/351/307
f 285/330/285 299/350/299 300/352/300
f 278/332/278 82/353/82 293/354/293
f 308/355/308 292/329/292 307/351/307
f 305/347/305 320/356/320 321/357/321
f 297/346/297 314/358/314 298/348/298
f 305/347/305 322/359/322 306/349/306
f 299/350/299 314/358/314 315/360/315
f 307/351/307 322/359/322 323/361/323
f 300/352/300 315/360/315 316/362/316
f 293/354/293 82/363/82 309/364/309
f 308/365/308 307/351/307 323/361/323
f 300/352/300 317/366/317 301/339/301
f 293/354/293 310/367/310 294/340/294
f 301/339/301 318/368/318 302/341/302
f 294/340/294 311/369/311 295/342/295
f 303/343/303 318/368/318 319/370/319
f 296/344/296 311/369/311 312/371/312
f 303/343/303 320/356/320 304/345/304
f 297/346/297 312/371/312 313/372/313
f 310/367/310 324/373/324 325/374/325
f 317/366/317 333/375/333 318/368/318
f 311/369/311 325/374/325 326/376/326
f 318/368/318 334/377/334 319/370/319
f 311/369/311 327/378/327 312/371/312
f 320/356/320 334/377/334 335/379/335
f 313/372/313 327/378/327 328/380/328
f 321/357/321 335/379/335 336/381/336
f 314/358/314 328/380/328 329/382/329
f 321/357/321 337/383/337 322/359/322
f 314/358/314 330/384/330 315/360/315
f 322/359/322 338/385/338 323/361/323
f 316/362/316 330/384/330 331/386/331
f 309/364/309 82/387/82 324/373/324
f 308/388/308 323/361/323 338/385/338
f 316/362/316 332/389/332 317/366/317
f 328/380/328 344/390/344 329/382/329
f 337/383/337 351/391/351 352/392/352
f 330/384/330 344/390/344 345/393/345
f 338/385/338 352/392/352 353/394/353
f 331/386/331 345/393/345 346/395/346
f 324/373/324 82/396/82 339/397/339
f 308/398/308 338/385/338 353/394/353
f 331/386/331 347/399/347 332/389/332
f 324/373/324 340/400/340 325/374/325
f 332/389/332 348/401/348 333/375/333
f 325/374/325 341/402/341 326/376/326
f 334/377/334 348/401/348 349/403/349
f 326/376/326 342/404/342 327/378/327
f 334/377/334 350/405/350 335/379/335
f 328/380/328 342/404/342 343/406/343
f 336/381/336 350/405/350 351/391/351
f 347/399/347 363/407/363 348/401/348
f 341/402/341 355/408/355 356/409/356
f 349/403/349 363/407/363 364/410/364
f 341/402/341 357/411/357 342/404/342
f 349/403/349 365/412/365 350/405/350
f 343/406/343 357/411/357 358/413/358
f 351/391/351 365/412/365 366/414/366
f 343/406/343 359/415/359 344/390/344
f 351/391/351 367/416/367 352/392/352
f 345/393/345 359/415/359 360/417/360
f 352/392/352 368/418/368 353/394/353
f 346/395/346 360/417/360 361/419/361
f 339/397/339 82/420/82 354/421/354
f 308/422/308 353/394/353 368/418/368
f 347/399/347 361/419/361 362/423/362
f 340/400/340 354/421/354 355/408/355
f 366/424/366 382/425/382 367/426/367
f 360/427/360 374/428/374 375/429/375
f 368/430/368 382/425/382 383/431/383
f 361/432/361 375/429/375 376/433/376
f 354/434/354 82/435/82 369/436/369
f 308/437/308 368/430/368 383/431/383
f 361/432/361 377/438/377 362/439/362
f 354/434/354 370/440/370 355/441/355
f 363/442/363 377/438/377 378/443/378
f 356/444/356 370/440/370 371/445/371
f 364/446/364 378/443/378 379/447/379
f 356/444/356 372/448/372 357/449/357
f 364/446/364 380/450/380 365/451/365
f 358/452/358 372/448/372 373/453/373
f 366/424/366 380/450/380 381/454/381
f 358/452/358 374/428/374 359/455/359
f 379/447/379 393/456/393 394/457/394
f 371/445/371 387/458/387 372/448/372
f 379/447/379 395/459/395 380/450/380
f 373/453/373 387/458/387 388/460/388
f 381/454/381 395/459/395 396/461/396
f 373/453/373 389/462/389 374/428/374
f 381/454/381 397/463/397 382/425/382
f 375/429/375 389/462/389 390/464/390
f 382/425/382 398/465/398 383/431/383
f 376/433/376 390/464/390 391/466/391
f 369/436/369 82/467/82 384/468/384
f 308/469/308 383/431/383 398/465/398
f 376/433/376 392/470/392 377/438/377
f 370/440/370 384/468/384 385/471/385
f 377/438/377 393/456/393 378/443/378
f 371/445/371 385/471/385 386/472/386
f 398/465/398 412/473/412 413/474/413
f 391/466/391 405/475/405 406/476/406
f 384/468/384 82/477/82 399/478/399
f 308/479/308 398/465/398 413/474/413
f 391/466/391 407/480/407 392/470/392
f 384/468/384 400/481/400 385/471/385
f 392/470/392 408/482/408 393/456/393
f 385/471/385 401/483/401 386/472/386
f 394/457/394 408/482/408 409/484/409
f 387/458/387 401/483/401 402/485/402
f 394/457/394 410/486/410 395/459/395
f 388/460/388 402/485/402 403/487/403
f 396/461/396 410/486/410 411/488/411
f 388/460/388 404/489/404 389/462/389
f 396/461/396 412/473/412 397/463/397
f 390/464/390 404/489/404 405/475/405
f 401/483/401 417/490/417 402/485/402
f 409/484/409 425/491/425 410/486/410
f 403/487/403 417/490/417 418/492/418
f 411/488/411 425/491/425 426/493/426
f 403/487/403 419/494/419 404/489/404
f 411/488/411 427/495/427 412/473/412
f 405/475/405 419/494/419 420/496/420
f 413/474/413 427/495/427 428/497/428
f 405/475/405 421/498/421 406/476/406
f 399/478/399 82/499/82 414/500/414
f 308/501/308 413/474/413 428/497/428
f 407/480/407 421/498/421 422/502/422
f 399/478/399 415/503/415 400/481/400
f 407/480/407 423/504/423 408/482/408
f 401/483/401 415/503/415 416/505/416
f 409/484/409 423/504/423 424/506/424
f 421/498/421 435/507/435 436/508/436
f 414/500/414 82/509/82 429/510/429
f 308/511/308 428/497/428 443/512/443
f 421/498/421 437/513/437 422/502/422
f 414/500/414 430/514/430 415/503/415
f 422/502/422 438/515/438 423/504/423
f 416/505/416 430/514/430 431/516/431
f 424/506/424 438/515/438 439/517/439
f 416/505/416 432/518/432 417/490/417
f 424/506/424 440/519/440 425/491/425
f 418/492/418 432/518/432 433/520/433
f 426/493/426 440/519/440 441/521/441
f 418/492/418 434/522/434 419/494/419
f 426/493/426 442/523/442 427/495/427
f 420/496/420 434/522/434 435/507/435
f 427/495/427 443/512/443 428/497/428
f 439/517/439 455/524/455 440/519/440
f 433/520/433 447/525/447 448/526/448
f 441/521/441 455/524/455 456/527/456
f 434/522/434 448/526/448 449/528/449
f 441/521/441 457/529/457 442/523/442
f 434/522/434 450/530/450 435/507/435
f 443/512/443 457/529/457 458/531/458
f 436/508/436 450/530/450 451/532/451
f 429/510/429 82/533/82 444/534/444
f 308/535/308 443/512/443 458/531/458
f 436/508/436 452/536/452 437/513/437
f 429/510/429 445/537/445 430/514/430
f 437/513/437 453/538/453 438/515/438
f 431/516/431 445/537/445 446/539/446
f 439/517/439 453/538/453 454/540/454
f 431/516/431 447/525/447 432/518/432
f 444/534/444 82/541/82 459/542/459
f 308/543/308 458/531/458 473/544/473
f 451/532/451 467/545/467 452/536/452
f 444/534/444 460/546/460 445/537/445
f 452/536/452 468/547/468 453/538/453
f 446/539/446 460/546/460 461/548/461
f 453/538/453 469/549/469 454/540/454
f 446/539/446 462/550/462 447/525/447
f 455/524/455 469/549/469 470/551/470
f 448/526/448 462/550/462 463/552/463
f 456/527/456 470/551/470 471/553/471
f 448/526/448 464/554/464 449/528/449
f 456/527/456 472/555/472 457/529/457
f 450/530/450 464/554/464 465/556/465
f 457/529/457 473/544/473 458/531/458
f 451/532/451 465/556/465 466/557/466
f 463/552/463 476/4/476 2/6/2
f 471/553/471 479/1/479 480/8/480
f 464/554/464 2/6/2 477/9/477
f 471/553/471 481/12/481 472/555/472
f 465/556/465 477/9/477 3/13/3
f 473/544/473 481/12/481 482/16/482
f 466/557/466 3/13/3 4/18/4
f 459/542/459 82/558/82 474/19/474
f 308/559/308 473/544/473 482/16/482
f 466/557/466 5/23/5 467/545/467
f 459/542/459 475/25/475 460/546/460
f 467/545/467 478/28/478 468/547/468
f 461/548/461 475/25/475 1/29/1
f 468/547/468 6/31/6 469/549/469
f 462/550/462 1/29/1 476/4/476
f 469/549/469 479/1/479 470/551/470
f 479/1/479 6/31/6 17/2/17
f 476/4/476 10/32/10 11/5/11
f 479/1/479 18/3/18 19/7/19
f 477/9/477 2/6/2 11/5/11
f 480/8/480 19/7/19 20/11/20
f 3/13/3 477/9/477 12/10/12
f 481/12/481 20/11/20 21/15/21
f 3/13/3 13/14/13 14/17/14
f 5/23/5 4/18/4 14/17/14
f 475/25/475 474/19/474 7/21/7
f 5/23/5 15/24/15 16/27/16
f 1/29/1 475/25/475 8/26/8
f 478/28/478 16/27/16 17/2/17
f 476/4/476 1/29/1 9/30/9
f 17/2/17 16/27/16 31/33/31
f 9/30/9 24/49/24 25/35/25
f 18/3/18 17/2/17 32/34/32
f 10/32/10 25/35/25 26/37/26
f 19/7/19 18/3/18 33/36/33
f 11/5/11 26/37/26 27/39/27
f 20/11/20 19/7/19 34/38/34
f 13/14/13 12/10/12 27/39/27
f 20/11/20 35/40/35 36/42/36
f 13/14/13 28/41/28 29/43/29
f 14/17/14 29/43/29 30/47/30
f 8/26/8 7/21/7 22/45/22
f 16/27/16 15/24/15 30/47/30
f 8/26/8 23/48/23 24/49/24
f 36/42/36 35/40/35 50/50/50
f 29/43/29 28/41/28 43/52/43
f 29/43/29 44/53/44 45/57/45
f 22/45/22 37/55/37 38/58/38
f 30/47/30 45/57/45 46/59/46
f 23/48/23 38/58/38 39/60/39
f 32/34/32 31/33/31 46/59/46
f 25/35/25 24/49/24 39/60/39
f 32/34/32 47/61/47 48/63/48
f 25/35/25 40/62/40 41/64/41
f 34/38/34 33/36/33 48/63/48
f 26/37/26 41/64/41 42/66/42
f 35/40/35 34/38/34 49/65/49
f 28/41/28 27/39/27 42/66/42
f 39/60/39 54/82/54 55/67/55
f 47/61/47 62/83/62 63/68/63
f 41/64/41 40/62/40 55/67/55
f 49/65/49 48/63/48 63/68/63
f 41/64/41 56/69/56 57/71/57
f 50/50/50 49/65/49 64/70/64
f 43/52/43 42/66/42 57/71/57
f 51/51/51 50/50/50 65/72/65
f 44/53/44 43/52/43 58/73/58
f 44/53/44 59/75/59 60/79/60
f 37/55/37 52/77/52 53/80/53
f 46/59/46 45/57/45 60/79/60
f 38/58/38 53/80/53 54/82/54
f 46/59/46 61/81/61 62/83/62
f 59/75/59 58/73/58 73/84/73
f 59/75/59 74/85/74 75/90/75
f 53/80/53 52/77/52 67/87/67
f 60/79/60 75/90/75 76/92/76
f 54/82/54 53/80/53 68/91/68
f 62/83/62 61/81/61 76/92/76
f 54/82/54 69/93/69 70/95/70
f 62/83/62 77/94/77 78/96/78
f 56/69/56 55/67/55 70/95/70
f 64/70/64 63/68/63 78/96/78
f 57/71/57 56/69/56 71/97/71
f 64/70/64 79/98/79 80/100/80
f 57/71/57 72/99/72 73/84/73
f 65/72/65 80/100/80 81/89/81
f 77/94/77 93/117/93 94/101/94
f 71/97/71 70/95/70 86/102/86
f 79/98/79 78/96/78 94/101/94
f 71/97/71 87/103/87 88/105/88
f 79/98/79 95/104/95 96/106/96
f 73/84/73 72/99/72 88/105/88
f 81/89/81 80/100/80 96/106/96
f 74/85/74 73/84/73 89/107/89
f 74/85/74 90/109/90 91/113/91
f 67/87/67 83/111/83 84/114/84
f 75/90/75 91/113/91 92/115/92
f 68/91/68 84/114/84 85/116/85
f 77/94/77 76/92/76 92/115/92
f 69/93/69 85/116/85 86/102/86
f 90/109/90 105/133/105 106/120/106
f 84/114/84 83/111/83 98/121/98
f 91/113/91 106/120/106 107/123/107
f 85/116/85 84/114/84 99/122/99
f 93/117/93 92/115/92 107/123/107
f 86/102/86 85/116/85 100/124/100
f 93/117/93 108/125/108 109/127/109
f 86/102/86 101/126/101 102/128/102
f 95/104/95 94/101/94 109/127/109
f 87/103/87 102/128/102 103/130/103
f 95/104/95 110/129/110 111/131/111
f 89/107/89 88/105/88 103/130/103
f 96/106/96 111/131/111 112/119/112
f 90/109/90 89/107/89 104/132/104
f 110/129/110 109/127/109 124/135/124
f 102/128/102 117/151/117 118/137/118
f 110/129/110 125/136/125 126/138/126
f 104/132/104 103/130/103 118/137/118
f 112/119/112 111/131/111 126/138/126
f 105/133/105 104/132/104 119/139/119
f 106/120/106 105/133/105 120/141/120
f 98/121/98 113/143/113 114/146/114
f 106/120/106 121/145/121 122/147/122
f 100/124/100 99/122/99 114/146/114
f 108/125/108 107/123/107 122/147/122
f 100/124/100 115/148/115 116/150/116
f 108/125/108 123/149/123 124/135/124
f 102/128/102 101/126/101 116/150/116
f 114/146/114 113/143/113 128/152/128
f 122/147/122 121/145/121 136/154/136
f 114/146/114 129/153/129 130/156/130
f 123/149/123 122/147/122 137/155/137
f 115/148/115 130/156/130 131/158/131
f 123/149/123 138/157/138 139/159/139
f 117/151/117 116/150/116 131/158/131
f 125/136/125 124/135/124 139/159/139
f 117/151/117 132/160/132 133/162/133
f 126/138/126 125/136/125 140/161/140
f 119/139/119 118/137/118 133/162/133
f 126/138/126 141/163/141 142/165/142
f 120/141/120 119/139/119 134/164/134
f 120/141/120 135/166/135 136/154/136
f 132/160/132 147/184/147 148/169/148
f 140/161/140 155/185/155 156/170/156
f 134/164/134 133/162/133 148/169/148
f 142/165/142 141/163/141 156/170/156
f 135/166/135 134/164/134 149/171/149
f 135/166/135 150/173/150 151/177/151
f 128/152/128 143/175/143 144/178/144
f 136/154/136 151/177/151 152/179/152
f 129/153/129 144/178/144 145/180/145
f 138/157/138 137/155/137 152/179/152
f 130/156/130 145/180/145 146/182/146
f 138/157/138 153/181/153 154/183/154
f 132/160/132 131/158/131 146/182/146
f 140/161/140 139/159/139 154/183/154
f 151/177/151 166/201/166 167/186/167
f 144/178/144 159/202/159 160/187/160
f 153/181/153 152/179/152 167/186/167
f 145/180/145 160/187/160 161/189/161
f 153/181/153 168/188/168 169/190/169
f 147/184/147 146/182/146 161/189/161
f 155/185/155 154/183/154 169/190/169
f 147/184/147 162/191/162 163/193/163
f 156/170/156 155/185/155 170/192/170
f 149/171/149 148/169/148 163/193/163
f 157/172/157 156/170/156 171/194/171
f 149/171/149 164/195/164 165/197/165
f 151/177/151 150/173/150 165/197/165
f 144/178/144 143/175/143 158/199/158
f 170/192/170 185/219/185 186/203/186
f 164/195/164 163/193/163 178/204/178
f 172/196/172 171/194/171 186/203/186
f 165/197/165 164/195/164 179/205/179
f 165/197/165 180/207/180 181/211/181
f 158/199/158 173/209/173 174/212/174
f 167/186/167 166/201/166 181/211/181
f 160/187/160 159/202/159 174/212/174
f 167/186/167 182/213/182 183/215/183
f 160/187/160 175/214/175 176/216/176
f 168/188/168 183/215/183 184/217/184
f 162/191/162 161/189/161 176/216/176
f 170/192/170 169/190/169 184/217/184
f 162/191/162 177/218/177 178/204/178
f 175/214/175 174/212/174 189/220/189
f 183/215/183 182/213/182 197/222/197
f 175/214/175 190/221/190 191/224/191
f 183/215/183 198/223/198 199/225/199
f 176/216/176 191/224/191 192/226/192
f 185/219/185 184/217/184 199/225/199
f 178/204/178 177/218/177 192/226/192
f 185/219/185 200/227/200 201/229/201
f 179/205/179 178/204/178 193/228/193
f 187/206/187 186/203/186 201/229/201
f 180/207/180 179/205/179 194/230/194
f 180/207/180 195/232/195 196/236/196
f 173/209/173 188/234/188 189/220/189
f 181/211/181 196/236/196 197/222/197
f 194/230/194 193/228/193 208/237/208
f 202/231/202 201/229/201 216/239/216
f 194/230/194 209/238/209 210/241/210
f 195/232/195 210/241/210 211/245/211
f 188/234/188 203/243/203 204/246/204
f 196/236/196 211/245/211 212/247/212
f 189/220/189 204/246/204 205/248/205
f 198/223/198 197/222/197 212/247/212
f 190/221/190 205/248/205 206/250/206
f 198/223/198 213/249/213 214/251/214
f 192/226/192 191/224/191 206/250/206
f 200/227/200 199/225/199 214/251/214
f 192/226/192 207/252/207 208/237/208
f 201/229/201 200/227/200 215/253/215
f 213/249/213 212/247/212 227/254/227
f 205/248/205 220/270/220 221/256/221
f 213/249/213 228/255/228 229/257/229
f 207/252/207 206/250/206 221/256/221
f 215/253/215 214/251/214 229/257/229
f 207/252/207 222/258/222 223/260/223
f 216/239/216 215/253/215 230/259/230
f 208/237/208 223/260/223 224/262/224
f 216/239/216 231/261/231 232/263/232
f 210/241/210 209/238/209 224/262/224
f 210/241/210 225/264/225 226/268/226
f 204/246/204 203/243/203 218/266/218
f 211/245/211 226/268/226 227/254/227
f 204/246/204 219/269/219 220/270/220
f 231/261/231 246/287/246 247/271/247
f 225/264/225 224/262/224 239/272/239
f 225/264/225 240/273/240 241/277/241
f 219/269/219 218/266/218 233/275/233
f 227/254/227 226/268/226 241/277/241
f 219/269/219 234/278/234 235/280/235
f 227/254/227 242/279/242 243/281/243
f 221/256/221 220/270/220 235/280/235
f 228/255/228 243/281/243 244/283/244
f 221/256/221 236/282/236 237/284/237
f 230/259/230 229/257/229 244/283/244
f 222/258/222 237/284/237 238/286/238
f 230/259/230 245/285/245 246/287/246
f 224/262/224 223/260/223 238/286/238
f 243/281/243 258/304/258 259/288/259
f 237/284/237 236/282/236 251/289/251
f 245/285/245 244/283/244 259/288/259
f 237/284/237 252/290/252 253/292/253
f 245/285/245 260/291/260 261/293/261
f 239/272/239 238/286/238 253/292/253
f 246/287/246 261/293/261 262/295/262
f 240/273/240 239/272/239 254/294/254
f 240/273/240 255/296/255 256/300/256
f 234/278/234 233/275/233 248/298/248
f 241/277/241 256/300/256 257/302/257
f 235/280/235 234/278/234 249/301/249
f 243/281/243 242/279/242 257/302/257
f 235/280/235 250/303/250 251/289/251
f 255/296/255 270/321/270 271/309/271
f 249/301/249 248/298/248 263/306/263
f 256/300/256 271/309/271 272/311/272
f 249/301/249 264/310/264 265/312/265
f 258/304/258 257/302/257 272/311/272
f 250/303/250 265/312/265 266/314/266
f 258/304/258 273/313/273 274/315/274
f 252/290/252 251/289/251 266/314/266
f 260/291/260 259/288/259 274/315/274
f 252/290/252 267/316/267 268/318/268
f 261/293/261 260/291/260 275/317/275
f 254/294/254 253/292/253 268/318/268
f 261/293/261 276/319/276 277/308/277
f 255/296/255 254/294/254 269/320/269
f 267/316/267 266/314/266 281/322/281
f 275/317/275 274/315/274 289/324/289
f 267/316/267 282/323/282 283/326/283
f 276/319/276 275/317/275 290/325/290
f 269/320/269 268/318/268 283/326/283
f 277/308/277 276/319/276 291/327/291
f 269/320/269 284/328/284 285/330/285
f 271/309/271 270/321/270 285/330/285
f 263/306/263 278/332/278 279/335/279
f 271/309/271 286/334/286 287/336/287
f 264/310/264 279/335/279 280/337/280
f 273/313/273 272/311/272 287/336/287
f 265/312/265 280/337/280 281/322/281
f 273/313/273 288/338/288 289/324/289
f 285/330/285 300/352/300 301/339/301
f 278/332/278 293/354/293 294/340/294
f 286/334/286 301/339/301 302/341/302
f 280/337/280 279/335/279 294/340/294
f 288/338/288 287/336/287 302/341/302
f 280/337/280 295/342/295 296/344/296
f 288/338/288 303/343/303 304/345/304
f 282/323/282 281/322/281 296/344/296
f 290/325/290 289/324/289 304/345/304
f 282/323/282 297/346/297 298/348/298
f 291/327/291 290/325/290 305/347/305
f 284/328/284 283/326/283 298/348/298
f 292/329/292 291/327/291 306/349/306
f 285/330/285 284/328/284 299/350/299
f 305/347/305 304/345/304 320/356/320
f 297/346/297 313/372/313 314/358/314
f 305/347/305 321/357/321 322/359/322
f 299/350/299 298/348/298 314/358/314
f 307/351/307 306/349/306 322/359/322
f 300/352/300 299/350/299 315/360/315
f 300/352/300 316/362/316 317/366/317
f 293/354/293 309/364/309 310/367/310
f 301/339/301 317/366/317 318/368/318
f 294/340/294 310/367/310 311/369/311
f 303/343/303 302/341/302 318/368/318
f 296/344/296 295/342/295 311/369/311
f 303/343/303 319/370/319 320/356/320
f 297/346/297 296/344/296 312/371/312
f 310/367/310 309/364/309 324/373/324
f 317/366/317 332/389/332 333/375/333
f 311/369/311 310/367/310 325/374/325
f 318/368/318 333/375/333 334/377/334
f 311/369/311 326/376/326 327/378/327
f 320/356/320 319/370/319 334/377/334
f 313/372/313 312/371/312 327/378/327
f 321/357/321 320/356/320 335/379/335
f 314/358/314 313/372/313 328/380/328
f 321/357/321 336/381/336 337/383/337
f 314/358/314 329/382/329 330/384/330
f 322/359/322 337/383/337 338/385/338
f 316/362/316 315/360/315 330/384/330
f 316/362/316 331/386/331 332/389/332
f 328/380/328 343/406/343 344/390/344
f 337/383/337 336/381/336 351/391/351
f 330/384/330 329/382/329 344/390/344
f 338/385/338 337/383/337 352/392/352
f 331/386/331 330/384/330 345/393/345
f 331/386/331 346/395/346 347/399/347
f 324/373/324 339/397/339 340/400/340
f 332/389/332 347/399/347 348/401/348
f 325/374/325 340/400/340 341/402/341
f 334/377/334 333/375/333 348/401/348
f 326/376/326 341/402/341 342/404/342
f 334/377/334 349/403/349 350/405/350
f 328/380/328 327/378/327 342/404/342
f 336/381/336 335/379/335 350/405/350
f 347/399/347 362/423/362 363/407/363
f 341/402/341 340/400/340 355/408/355
f 349/403/349 348/401/348 363/407/363
f 341/402/341 356/409/356 357/411/357
f 349/403/349 364/410/364 365/412/365
f 343/406/343 342/404/342 357/411/357
f 351/391/351 350/405/350 365/412/365
f 343/406/343 358/413/358 359/415/359
f 351/391/351 366/414/366 367/416/367
f 345/393/345 344/390/344 359/415/359
f 352/392/352 367/416/367 368/418/368
f 346/395/346 345/393/345 360/417/360
f 347/399/347 346/395/346 361/419/361
f 340/400/340 339/397/339 354/421/354
f 366/424/366 381/454/381 382/425/382
f 360/427/360 359/455/359 374/428/374
f 368/430/368 367/426/367 382/425/382
f 361/432/361 360/427/360 375/429/375
f 361/432/361 376/433/376 377/438/377
f 354/434/354 369/436/369 370/440/370
f 363/442/363 362/439/362 377/438/377
f 356/444/356 355/441/355 370/440/370
f 364/446/364 363/442/363 378/443/378
f 356/444/356 371/445/371 372/448/372
f 364/446/364 379/447/379 380/450/380
f 358/452/358 357/449/357 372/448/372
f 366/424/366 365/451/365 380/450/380
f 358/452/358 373/453/373 374/428/374
f 379/447/379 378/443/378 393/456/393
f 371/445/371 386/472/386 387/458/387
f 379/447/379 394/457/394 395/459/395
f 373/453/373 372/448/372 387/458/387
f 381/454/381 380/450/380 395/459/395
f 373/453/373 388/460/388 389/462/389
f 381/454/381 396/461/396 397/463/397
f 375/429/375 374/428/374 389/462/389
f 382/425/382 397/463/397 398/465/398
f 376/433/376 375/429/375 390/464/390
f 376/433/376 391/466/391 392/470/392
f 370/440/370 369/436/369 384/468/384
f 377/438/377 392/470/392 393/456/393
f 371/445/371 370/440/370 385/471/385
f 398/465/398 397/463/397 412/473/412
f 391/466/391 390/464/390 405/475/405
f 391/466/391 406/476/406 407/480/407
f 384/468/384 399/478/399 400/481/400
f 392/470/392 407/480/407 408/482/408
f 385/471/385 400/481/400 401/483/401
f 394/457/394 393/456/393 408/482/408
f 387/458/387 386/472/386 401/483/401
f 394/457/394 409/484/409 410/486/410
f 388/460/388 387/458/387 402/485/402
f 396/461/396 395/459/395 410/486/410
f 388/460/388 403/487/403 404/489/404
f 396/461/396 411/488/411 412/473/412
f 390/464/390 389/462/389 404/489/404
f 401/483/401 416/505/416 417/490/417
f 409/484/409 424/506/424 425/491/425
f 403/487/403 402/485/402 417/490/417
f 411/488/411 410/486/410 425/491/425
f 403/487/403 418/492/418 419/494/419
f 411/488/411 426/493/426 427/495/427
f 405/475/405 404/489/404 419/494/419
f 413/474/413 412/473/412 427/495/427
f 405/475/405 420/496/420 421/498/421
f 407/480/407 406/476/406 421/498/421
f 399/478/399 414/500/414 415/503/415
f 407/480/407 422/502/422 423/504/423
f 401/483/401 400/481/400 415/503/415
f 409/484/409 408/482/408 423/504/423
f 421/498/421 420/496/420 435/507/435
f 421/498/421 436/508/436 437/513/437
f 414/500/414 429/510/429 430/514/430
f 422/502/422 437/513/437 438/515/438
f 416/505/416 415/503/415 430/514/430
f 424/506/424 423/504/423 438/515/438
f 416/505/416 431/516/431 432/518/432
f 424/506/424 439/517/439 440/519/440
f 418/492/418 417/490/417 432/518/432
f 426/493/426 425/491/425 440/519/440
f 418/492/418 433/520/433 434/522/434
f 426/493/426 441/521/441 442/523/442
f 420/496/420 419/494/419 434/522/434
f 427/495/427 442/523/442 443/512/443
f 439/517/439 454/540/454 455/524/455
f 433/520/433 432/518/432 447/525/447
f 441/521/441 440/519/440 455/524/455
f 434/522/434 433/520/433 448/526/448
f 441/521/441 456/527/456 457/529/457
f 434/522/434 449/528/449 450/530/450
f 443/512/443 442/523/442 457/529/457
f 436/508/436 435/507/435 450/530/450
f 436/508/436 451/532/451 452/536/452
f 429/510/429 444/534/444 445/537/445
f 437/513/437 452/536/452 453/538/453
f 431/516/431 430/514/430 445/537/445
f 439/517/439 438/515/438 453/538/453
f 431/516/431 446/539/446 447/525/447
f 451/532/451 466/557/466 467/545/467
f 444/534/444 459/542/459 460/546/460
f 452/536/452 467/545/467 468/547/468
f 446/539/446 445/537/445 460/546/460
f 453/538/453 468/547/468 469/549/469
f 446/539/446 461/548/461 462/550/462
f 455/524/455 454/540/454 469/549/469
f 448/526/448 447/525/447 462/550/462
f 456/527/456 455/524/455 470/551/470
f 448/526/448 463/552/463 464/554/464
f 456/527/456 471/553/471 472/555/472
f 450/530/450 449/528/449 464/554/464
f 457/529/457 472/555/472 473/544/473
f 451/532/451 450/530/450 465/556/465
f 463/552/463 462/550/462 476/4/476
f 471/553/471 470/551/470 479/1/479
f 464/554/464 463/552/463 2/6/2
f 471/553/471 480/8/480 481/12/481
f 465/556/465 464/554/464 477/9/477
f 473/544/473 472/555/472 481/12/481
f 466/557/466 465/556/465 3/13/3
f 466/557/466 4/18/4 5/23/5
f 459/542/459 474/19/474 475/25/475
f 467/545/467 5/23/5 478/28/478
f 461/548/461 460/546/460 475/25/475
f 468/547/468 478/28/478 6/31/6
f 462/550/462 461/548/461 1/29/1
f 469/549/469 6/31/6 479/1/479
